<?xml version="1.0" standalone="no"?><!DOCTYPE svg PUBLIC "-//W3C//DTD SVG 1.1//EN" "http://www.w3.org/Graphics/SVG/1.1/DTD/svg11.dtd"><svg t="1586351909530" class="icon" viewBox="0 0 1024 1024" version="1.1" xmlns="http://www.w3.org/2000/svg" p-id="8633" xmlns:xlink="http://www.w3.org/1999/xlink" width="200" height="200"><defs><style type="text/css"></style></defs><path d="M983.04 406.4H819.2c-22.592 0-40.96 18.624-40.96 41.6 0 22.912 18.368 41.472 40.96 41.472h163.84c22.592 0 40.96-18.56 40.96-41.536a41.216 41.216 0 0 0-40.96-41.472m0-166.08H819.2c-22.592 0-40.96 18.56-40.96 41.536 0 22.912 18.368 41.472 40.96 41.472h163.84c22.592 0 40.96-18.56 40.96-41.472a41.216 41.216 0 0 0-40.96-41.536M819.2 157.44h163.84c22.592 0 40.96-18.56 40.96-41.536a41.216 41.216 0 0 0-40.96-41.472H819.2c-22.592 0-40.96 18.56-40.96 41.472 0 22.976 18.368 41.536 40.96 41.536" fill="#000000" p-id="8634"></path><path d="M836.8 655.552c-6.528-2.944-124.416-55.232-254.336-81.408a228.48 228.48 0 0 0 39.808-43.136c28.032-38.848 43.2-85.76 43.264-133.888V261.12A229.76 229.76 0 0 0 573.44 77.44 221.184 221.184 0 0 0 440.576 32.832c-124.096 0-225.024 102.4-225.024 228.352v135.936c0 73.344 34.432 138.56 87.552 180.416a1367.232 1367.232 0 0 0-237.44 77.44C28.16 670.208 0 712.96 0 754.176v170.816l2.24 6.528c12.16 36.224 44.928 60.48 81.6 60.48h733.44c42.624 0 77.888-32.256 83.2-73.92l0.64-163.968c0-19.776-6.656-39.808-17.472-57.088a104.768 104.768 0 0 0-46.848-41.472" fill="#000000" p-id="8635"></path></svg>