<?xml version="1.0" standalone="no"?><!DOCTYPE svg PUBLIC "-//W3C//DTD SVG 1.1//EN" "http://www.w3.org/Graphics/SVG/1.1/DTD/svg11.dtd"><svg t="1586351816667" class="icon" viewBox="0 0 1024 1024" version="1.1" xmlns="http://www.w3.org/2000/svg" p-id="6325" xmlns:xlink="http://www.w3.org/1999/xlink" width="200" height="200"><defs><style type="text/css"></style></defs><path d="M860.096 0.64H163.776A164.48 164.48 0 0 0 0 164.736v695.232A164.48 164.48 0 0 0 163.84 1024h696.256a164.48 164.48 0 0 0 163.84-164.032v-6.208s-266.24-110.72-401.408-176.32c-90.112 110.72-206.848 178.368-327.68 178.368-202.688 0-272.32-178.368-176.064-295.296 20.48-24.576 57.344-49.216 112.64-63.552 88-22.592 227.264 12.288 356.288 55.36a729.6 729.6 0 0 0 57.344-141.504H243.712v-40.96h206.784v-69.76H200.704v-41.024h249.792V154.496s0-18.496 18.432-18.496h100.352v120.96h247.808v41.088H569.28v71.744h202.752c-20.48 77.952-49.152 151.744-86.016 215.36 61.44 22.528 116.736 43.072 157.696 57.408 147.456 49.216 180.224 53.312 180.224 53.312v-531.2A164.48 164.48 0 0 0 860.096 0.64z" fill="#000000" p-id="6326"></path><path d="M249.856 556.416c-26.624 2.048-73.728 14.336-100.352 36.928-79.872 69.76-32.768 194.816 126.976 194.816 92.16 0 184.32-59.52 260.032-153.792-104.448-51.264-192.448-88.192-286.72-77.952z" fill="#000000" p-id="6327"></path></svg>