<?xml version="1.0" standalone="no"?><!DOCTYPE svg PUBLIC "-//W3C//DTD SVG 1.1//EN" "http://www.w3.org/Graphics/SVG/1.1/DTD/svg11.dtd"><svg t="1586351790021" class="icon" viewBox="0 0 1024 1024" version="1.1" xmlns="http://www.w3.org/2000/svg" p-id="5649" xmlns:xlink="http://www.w3.org/1999/xlink" width="200" height="200"><defs><style type="text/css"></style></defs><path d="M17.472 367.744C3.648 409.984 0 455.936 0 501.888 0 790.528 228.864 1024 512 1024c282.176 0 512-233.472 512-522.112 0-210.432-122.304-392.448-298.752-475.2C659.968-3.648 600.192-10.88 587.328 23.04c-11.904 34.944 34.944 68.032 68.928 83.648 34.048 15.616 126.848 59.712 122.24 147.072-3.648 87.296-139.648 97.408-220.544 63.36-80-33.024-196.736-82.688-224.32-59.712-27.52 23.04-32.128 80.896 32.192 119.488 65.28 38.592 207.744 116.736 227.968 215.04 20.224 98.432 5.504 295.104-277.632 211.456-65.28-19.264-135.04-122.24-155.328-167.296-57.856-129.6 11.072-260.096 36.8-298.688 36.736-56.064 36.736-111.232-28.48-135.168-62.528-22.976-113.088 45.056-151.68 165.504z" fill="#000000" p-id="5650"></path><path d="M586.432 116.8c46.848 18.368 71.68 62.464 55.168 98.368-16.576 35.84-68.032 50.56-114.944 32.128-46.848-18.368-71.68-62.464-55.104-98.304 16.512-35.84 67.968-50.56 114.88-32.192z" fill="#000000" p-id="5651"></path></svg>