<?xml version="1.0" standalone="no"?><!DOCTYPE svg PUBLIC "-//W3C//DTD SVG 1.1//EN" "http://www.w3.org/Graphics/SVG/1.1/DTD/svg11.dtd"><svg t="1588051191428" class="icon" viewBox="0 0 1024 1024" version="1.1" xmlns="http://www.w3.org/2000/svg" p-id="14614" xmlns:xlink="http://www.w3.org/1999/xlink" width="200" height="200"><defs><style type="text/css"></style></defs><path d="M801.28 485.12l-203.946667-256a42.666667 42.666667 0 0 0-60.16-6.4 42.666667 42.666667 0 0 0-6.4 60.16L712.96 512l-191.146667 229.12a42.666667 42.666667 0 0 0 5.546667 60.16A42.666667 42.666667 0 0 0 554.666667 810.666667a42.666667 42.666667 0 0 0 32.853333-15.36l213.333333-256a42.666667 42.666667 0 0 0 0.426667-54.186667z" p-id="14615"></path><path d="M298.666667 229.12a42.666667 42.666667 0 0 0-68.693334 53.76L414.293333 512l-191.146666 228.693333a42.666667 42.666667 0 0 0 5.546666 60.16A42.666667 42.666667 0 0 0 256 810.666667a42.666667 42.666667 0 0 0 32.853333-15.36l213.333334-256a42.666667 42.666667 0 0 0 0-54.186667z" p-id="14616"></path></svg>