<?xml version="1.0" standalone="no"?><!DOCTYPE svg PUBLIC "-//W3C//DTD SVG 1.1//EN" "http://www.w3.org/Graphics/SVG/1.1/DTD/svg11.dtd"><svg t="1588051197264" class="icon" viewBox="0 0 1024 1024" version="1.1" xmlns="http://www.w3.org/2000/svg" p-id="14748" xmlns:xlink="http://www.w3.org/1999/xlink" width="200" height="200"><defs><style type="text/css"></style></defs><path d="M496.64 223.146667a42.666667 42.666667 0 0 0-60.16 5.546666l-213.333333 256a42.666667 42.666667 0 0 0 0 54.186667l206.08 256a42.666667 42.666667 0 0 0 33.28 15.786667 42.666667 42.666667 0 0 0 33.28-69.546667L311.04 512l191.146667-229.12a42.666667 42.666667 0 0 0-5.546667-59.733333z" p-id="14749"></path><path d="M609.706667 512l191.146666-229.12a42.666667 42.666667 0 0 0-65.706666-54.613333l-213.333334 256a42.666667 42.666667 0 0 0 0 54.186666l206.08 256a42.666667 42.666667 0 0 0 33.28 15.786667 42.666667 42.666667 0 0 0 33.28-69.546667z" p-id="14750"></path></svg>