<?xml version="1.0" standalone="no"?><!DOCTYPE svg PUBLIC "-//W3C//DTD SVG 1.1//EN" "http://www.w3.org/Graphics/SVG/1.1/DTD/svg11.dtd"><svg t="1586351849134" class="icon" viewBox="0 0 1024 1024" version="1.1" xmlns="http://www.w3.org/2000/svg" p-id="7141" xmlns:xlink="http://www.w3.org/1999/xlink" width="200" height="200"><defs><style type="text/css"></style></defs><path d="M213.12 214.144H42.624A42.624 42.624 0 0 0 0 256.768v724.608c0 23.552 19.072 42.624 42.624 42.624H213.12a42.624 42.624 0 0 0 42.624-42.624V256.768A42.624 42.624 0 0 0 213.12 214.144z" fill="#000000" p-id="7142"></path><path d="M596.736 469.888H426.24a42.624 42.624 0 0 0-42.624 42.624v468.864c0 23.552 19.072 42.624 42.624 42.624h170.496a42.56 42.56 0 0 0 42.624-42.624V512.512a42.624 42.624 0 0 0-42.624-42.624zM980.352 1.024h-170.496a42.624 42.624 0 0 0-42.624 42.624v937.728c0 23.552 19.072 42.624 42.624 42.624h170.496a42.56 42.56 0 0 0 42.624-42.624V43.648a42.624 42.624 0 0 0-42.624-42.624z" fill="#000000" p-id="7143"></path></svg>