<?xml version="1.0" standalone="no"?><!DOCTYPE svg PUBLIC "-//W3C//DTD SVG 1.1//EN" "http://www.w3.org/Graphics/SVG/1.1/DTD/svg11.dtd"><svg t="1586393575130" class="icon" viewBox="0 0 1024 1024" version="1.1" xmlns="http://www.w3.org/2000/svg" p-id="10588" xmlns:xlink="http://www.w3.org/1999/xlink" width="200" height="200"><defs><style type="text/css"></style></defs><path d="M675.413333 256H177.92A98.56 98.56 0 0 0 85.333333 359.68v304.64A98.56 98.56 0 0 0 177.92 768h497.493333A98.56 98.56 0 0 0 768 664.32V359.68A98.56 98.56 0 0 0 675.413333 256zM896 384a42.666667 42.666667 0 0 0-42.666667 42.666667v170.666666a42.666667 42.666667 0 0 0 85.333334 0v-170.666666a42.666667 42.666667 0 0 0-42.666667-42.666667z" p-id="10589"></path></svg>