<?xml version="1.0" standalone="no"?><!DOCTYPE svg PUBLIC "-//W3C//DTD SVG 1.1//EN" "http://www.w3.org/Graphics/SVG/1.1/DTD/svg11.dtd"><svg t="1586393625581" class="icon" viewBox="0 0 1024 1024" version="1.1" xmlns="http://www.w3.org/2000/svg" p-id="11564" xmlns:xlink="http://www.w3.org/1999/xlink" width="200" height="200"><defs><style type="text/css"></style></defs><path d="M875.52 648.96l-76.8-77.226667V381.44a292.693333 292.693333 0 0 0-248.32-293.546667 287.573333 287.573333 0 0 0-325.12 284.586667v199.253333l-76.8 77.226667A69.973333 69.973333 0 0 0 197.973333 768H341.333333v14.506667A163.84 163.84 0 0 0 512 938.666667a163.84 163.84 0 0 0 170.666667-156.16V768h143.36a69.973333 69.973333 0 0 0 49.493333-119.04zM597.333333 782.506667A80.213333 80.213333 0 0 1 512 853.333333a80.213333 80.213333 0 0 1-85.333333-70.826666V768h170.666666z" p-id="11565"></path></svg>