<?xml version="1.0" standalone="no"?><!DOCTYPE svg PUBLIC "-//W3C//DTD SVG 1.1//EN" "http://www.w3.org/Graphics/SVG/1.1/DTD/svg11.dtd"><svg t="1586393630925" class="icon" viewBox="0 0 1024 1024" version="1.1" xmlns="http://www.w3.org/2000/svg" p-id="11686" xmlns:xlink="http://www.w3.org/1999/xlink" width="200" height="200"><defs><style type="text/css"></style></defs><path d="M581.546667 512l170.666666-161.706667a48.64 48.64 0 0 0-5.546666-75.52l-199.253334-137.813333a49.92 49.92 0 0 0-51.626666-3.413333 49.066667 49.066667 0 0 0-26.453334 42.666666v264.533334l-136.106666-170.666667a42.666667 42.666667 0 0 0-66.56 55.466667L414.72 512l-149.333333 189.013333a42.666667 42.666667 0 0 0 6.826666 59.733334A42.666667 42.666667 0 0 0 298.666667 768a42.666667 42.666667 0 0 0 33.28-16.213333L469.333333 578.56v268.373333A49.493333 49.493333 0 0 0 518.826667 896a49.493333 49.493333 0 0 0 28.586666-8.96l197.973334-135.68a49.92 49.92 0 0 0 20.906666-36.266667 49.066667 49.066667 0 0 0-14.506666-38.826666zM554.666667 245.76l106.666666 73.813333L554.666667 420.266667z m0 532.906667v-173.653334l105.386666 101.546667z" p-id="11687"></path></svg>