<?xml version="1.0" standalone="no"?><!DOCTYPE svg PUBLIC "-//W3C//DTD SVG 1.1//EN" "http://www.w3.org/Graphics/SVG/1.1/DTD/svg11.dtd"><svg t="1586352047541" class="icon" viewBox="0 0 1024 1024" version="1.1" xmlns="http://www.w3.org/2000/svg" p-id="12558" xmlns:xlink="http://www.w3.org/1999/xlink" width="200" height="200"><defs><style type="text/css"></style></defs><path d="M884.41088 240.32a34.176 34.176 0 0 1-22.912-59.52l34.752-31.36a34.112 34.112 0 1 1 45.824 50.752l-34.752 31.36a33.984 33.984 0 0 1-22.912 8.768zM133.24288 240.32a34.048 34.048 0 0 1-22.848-8.768L75.64288 200.192A34.24 34.24 0 0 1 121.46688 149.376l34.688 31.36a34.24 34.24 0 0 1-22.912 59.52z" fill="#000000" p-id="12559"></path><path d="M508.85888 103.296a34.176 34.176 0 0 1-34.24-34.176V34.944a34.176 34.176 0 0 1 68.352 0v34.176c0 18.88-15.296 34.176-34.112 34.176zM508.85888 126.464a342.144 342.144 0 0 0-341.76 341.76c0 118.592 73.28 199.872 76.352 203.264 32.128 35.008 60.288 107.52 60.288 155.008v59.456c0 75.392 61.312 136.704 136.704 136.704h136.768a136.832 136.832 0 0 0 136.704-136.704v-59.52c0-47.552 28.16-119.936 60.288-154.944 3.136-3.392 76.416-84.672 76.416-203.264a342.144 342.144 0 0 0-341.76-341.76z m68.352 762.88H440.44288a34.176 34.176 0 1 1 0-68.352h136.768a34.176 34.176 0 1 1 0 68.352z m79.104-309.376a34.112 34.112 0 0 1-43.2-21.568l-16.64-50.048-63.424 63.36a34.176 34.176 0 0 1-48.384 0l-63.36-63.36-16.704 50.048a34.112 34.112 0 1 1-64.832-21.632l34.176-102.528a34.24 34.24 0 0 1 56.576-13.376l78.336 78.4 78.336-78.4a34.176 34.176 0 0 1 56.576 13.44l34.176 102.464a34.176 34.176 0 0 1-21.632 43.2z" fill="#000000" p-id="12560"></path></svg>