<?xml version="1.0" standalone="no"?><!DOCTYPE svg PUBLIC "-//W3C//DTD SVG 1.1//EN" "http://www.w3.org/Graphics/SVG/1.1/DTD/svg11.dtd"><svg t="1586352067506" class="icon" viewBox="0 0 1024 1024" version="1.1" xmlns="http://www.w3.org/2000/svg" p-id="13101" xmlns:xlink="http://www.w3.org/1999/xlink" width="200" height="200"><defs><style type="text/css"></style></defs><path d="M910.208 32.576H382.272c-47.36 0-91.008 40.512-91.008 92.16V227.84L65.536 342.08s-3.648 0-3.648 3.712C21.824 375.232 0 419.456 0 474.752v372.096c0 11.072 3.648 18.432 10.88 25.792a32.896 32.896 0 0 0 25.536 11.072h112.832c0-7.36-3.584-11.072-3.584-18.432 0-92.16 72.768-165.76 163.84-165.76 91.008 0 163.84 73.6 163.84 165.76 0 7.36 0 11.072-3.648 18.432h112.832v-18.432c0-92.16 72.832-165.76 163.84-165.76 91.008 0 163.84 73.6 163.84 165.76v18.432h76.48c21.824 0 36.416-14.72 36.416-36.864V143.104C1019.456 84.16 972.096 32.64 910.208 32.64z m-618.88 442.176c0 22.08-14.592 36.8-36.48 36.8H109.248c-21.888 0-36.48-14.72-36.48-36.8 0-73.728 120.192-125.312 167.552-143.744 14.528-7.36 25.472-3.648 36.416 3.712 10.88 7.36 14.528 18.432 14.528 29.44v110.592z" fill="#000000" p-id="13102"></path><path d="M185.664 861.632c0 71.168 57.088 128.96 127.424 128.96 70.4 0 127.488-57.792 127.488-128.96a128.192 128.192 0 0 0-127.488-129.024c-70.4 0-127.36 57.792-127.36 129.024zM618.944 861.632c0 71.168 57.088 128.96 127.424 128.96 70.4 0 127.424-57.792 127.424-128.96 0-71.232-57.024-129.024-127.36-129.024-70.4 0-127.488 57.792-127.488 129.024z" fill="#000000" p-id="13103"></path></svg>