<?xml version="1.0" standalone="no"?><!DOCTYPE svg PUBLIC "-//W3C//DTD SVG 1.1//EN" "http://www.w3.org/Graphics/SVG/1.1/DTD/svg11.dtd"><svg t="1588209766669" class="icon" viewBox="0 0 1024 1024" version="1.1" xmlns="http://www.w3.org/2000/svg" p-id="6799" xmlns:xlink="http://www.w3.org/1999/xlink" width="200" height="200"><defs><style type="text/css"></style></defs><path d="M810.31 388.92L484.14 706.13a49.78 49.78 0 0 1-34.36 13.94 49.78 49.78 0 0 1-34.86-13.45L215.74 514.91c-16.32-19.42-15.43-47.99 2.04-66.36 17.48-18.37 45.98-20.68 66.18-5.35l165.33 157.86L738.6 317.71c19.67-19.8 51.66-19.91 71.46-0.25 19.8 19.67 19.92 51.66 0.25 71.46z m49.8-325.17H162.95c-55 0-99.6 44.59-99.6 99.6v697.16c0 26.41 10.49 51.74 29.17 70.42s44.01 29.17 70.42 29.17H860.1c26.41 0 51.74-10.49 70.42-29.17s29.17-44.01 29.17-70.42V163.34c0-26.41-10.49-51.75-29.17-70.42s-43.99-29.17-70.41-29.17z" p-id="6800"></path></svg>