<?xml version="1.0" standalone="no"?><!DOCTYPE svg PUBLIC "-//W3C//DTD SVG 1.1//EN" "http://www.w3.org/Graphics/SVG/1.1/DTD/svg11.dtd"><svg t="1586352073999" class="icon" viewBox="0 0 1024 1024" version="1.1" xmlns="http://www.w3.org/2000/svg" p-id="13239" xmlns:xlink="http://www.w3.org/1999/xlink" width="200" height="200"><defs><style type="text/css"></style></defs><path d="M839.04 832H174.4C74.944 832 0 753.216 0 648.704c0-88.512 53.184-159.296 131.392-178.176a207.296 207.296 0 0 1 203.392-164.16c29.376 0 58.24 6.144 84.8 17.92A274.944 274.944 0 0 1 655.68 192.704c152.384 0 276.48 122.88 276.48 274.112 0 7.68-0.32 15.424-0.96 22.976a183.68 183.68 0 0 1 92.608 158.848c0 101.12-82.88 183.296-184.768 183.296z" fill="#000000" p-id="13240"></path></svg>