<?xml version="1.0" standalone="no"?><!DOCTYPE svg PUBLIC "-//W3C//DTD SVG 1.1//EN" "http://www.w3.org/Graphics/SVG/1.1/DTD/svg11.dtd"><svg t="1586351869226" class="icon" viewBox="0 0 1024 1024" version="1.1" xmlns="http://www.w3.org/2000/svg" p-id="7684" xmlns:xlink="http://www.w3.org/1999/xlink" width="200" height="200"><defs><style type="text/css"></style></defs><path d="M959.52467 657.686895a257.903881 257.903881 0 0 0-209.842885-108.281233c-143.351041 0-258.927817 117.624648-258.927817 262.127617 0 87.162552 42.23736 164.469721 106.937316 212.402725H194.836463A99.385788 99.385788 0 0 1 96.026638 923.910256V100.025748C96.026638 45.053184 139.927895 0 194.836463 0h665.814386c54.3966 0 98.87382 44.47722 98.873821 100.025748v557.661147zM280.975079 303.085057c0 11.711268 11.007312 21.630648 24.830448 21.630648h443.876258c13.887132 0 24.894444-9.343416 24.894444-21.630648v-19.326792c0-11.711268-11.007312-21.630648-24.894444-21.630648H305.805527c-13.823136 0-24.830448 9.91938-24.830448 21.630648v19.326792z m0 187.252297c0 11.711268 11.007312 21.630648 24.830448 21.630648h320.811949c13.887132 0 24.830448-9.343416 24.830449-21.630648V471.010562c0-11.711268-10.943316-21.630648-24.830449-21.630648H305.805527c-13.823136 0-24.830448 9.91938-24.830448 21.630648v19.326792z m0 187.828261c0 11.647272 11.007312 21.630648 24.830448 21.630648h135.863509c13.887132 0 24.830448-9.343416 24.830448-21.630648v-19.902756c0-11.711268-10.943316-21.694644-24.830448-21.694645H305.805527c-13.823136 0-24.830448 9.407412-24.830448 21.694645v19.83876zM749.681785 1023.936004c-115.576776 0-209.778889-94.778076-209.778889-212.402725 0-117.624648 93.626148-212.402725 209.778889-212.402725 116.216736 0 209.842885 94.778076 209.842885 212.466721 0 117.560652-94.202112 212.338729-209.842885 212.338729z m0-133.431661l50.87682 31.614025a24.95844 24.95844 0 0 0 36.989688-26.878321l-13.823136-58.55634 45.053184-39.165552a24.31848 24.31848 0 0 0 8.63946-16.95894 25.214424 25.214424 0 0 0-22.526592-26.942316l-59.51628-4.671708-23.102556-55.612524a24.574464 24.574464 0 0 0-45.629148 0l-23.166552 55.612524-59.51628 4.671708a23.870508 23.870508 0 0 0-16.766953 8.767452 25.214424 25.214424 0 0 0 2.87982 35.133804l45.053185 39.165552-13.823136 58.55634c-1.727892 6.3996-0.63996 13.43916 2.87982 18.686833a24.894444 24.894444 0 0 0 34.109868 8.191488l51.388788-31.614025z" fill="#000000" p-id="7685"></path></svg>