<?xml version="1.0" standalone="no"?><!DOCTYPE svg PUBLIC "-//W3C//DTD SVG 1.1//EN" "http://www.w3.org/Graphics/SVG/1.1/DTD/svg11.dtd"><svg t="1586351832976" class="icon" viewBox="0 0 1024 1024" version="1.1" xmlns="http://www.w3.org/2000/svg" p-id="6734" xmlns:xlink="http://www.w3.org/1999/xlink" width="200" height="200"><defs><style type="text/css"></style></defs><path d="M878.08 477.184l-202.752 202.816a46.4 46.4 0 0 1-65.792 0L460.672 531.136l-195.2 193.28a46.464 46.464 0 0 1-65.856-0.384 46.528 46.528 0 0 1 0.32-65.856L428.16 432.384a46.528 46.528 0 0 1 65.664 0.192l148.672 148.672 169.856-169.856a46.528 46.528 0 0 1 65.856 65.792M931.2 0H92.8C41.536 0 0 41.536 0 92.736V931.2C0 982.464 41.6 1024 92.736 1024H931.2c51.2 0 92.672-41.536 92.736-92.736V92.8A92.8 92.8 0 0 0 931.264 0" fill="#000000" p-id="6735"></path></svg>