<?xml version="1.0" standalone="no"?><!DOCTYPE svg PUBLIC "-//W3C//DTD SVG 1.1//EN" "http://www.w3.org/Graphics/SVG/1.1/DTD/svg11.dtd"><svg t="1586352172342" class="icon" viewBox="0 0 1024 1024" version="1.1" xmlns="http://www.w3.org/2000/svg" p-id="14727" xmlns:xlink="http://www.w3.org/1999/xlink" width="200" height="200"><defs><style type="text/css"></style></defs><path d="M958.784 511.872V65.024c0-38.336-25.536-63.872-63.872-63.872H127.936c-38.4 0-63.936 25.6-63.936 63.872V958.72c0 38.272 25.6 63.808 63.936 63.808h556.032c6.4 0 12.8-6.4 12.8-6.4l255.68-255.36c6.4-12.8 6.4-25.536 6.4-38.272V511.872z m-108.608 255.36l-147.008 146.816v-146.816h147.008z m-600.832-31.936c0-19.136 19.2-31.872 32-31.872H543.36c19.2 0 32 12.8 32 31.872 0 19.2-12.8 32-32 32H281.344c-12.8 0-32-12.8-32-32z m492.16-414.912h-460.16c-19.2 0-32-12.8-32-32 0-19.072 19.2-31.872 32-31.872h453.76c19.2 0 32 12.8 32 31.936 0 19.2-12.8 31.936-25.6 31.936z m0 223.36h-460.16c-12.8 0-32-12.736-32-31.872 0-19.2 12.8-31.936 32-31.936h453.76c19.2 0 32 12.8 32 32 0 19.072-12.8 31.872-25.6 31.872z" fill="#000000" p-id="14728"></path></svg>