<?xml version="1.0" standalone="no"?><!DOCTYPE svg PUBLIC "-//W3C//DTD SVG 1.1//EN" "http://www.w3.org/Graphics/SVG/1.1/DTD/svg11.dtd"><svg t="1586352109051" class="icon" viewBox="0 0 1024 1024" version="1.1" xmlns="http://www.w3.org/2000/svg" p-id="13920" xmlns:xlink="http://www.w3.org/1999/xlink" width="200" height="200"><defs><style type="text/css"></style></defs><path d="M664.08384 417.92h-305.28a43.84 43.84 0 0 1-43.648-44.096c0-24.32 19.52-44.032 43.584-44.032h305.28c24.128 0 43.648 19.712 43.648 44.032 0 24.32-19.52 44.096-43.584 44.096m350.528-96.128l-77.056-188.224a99.712 99.712 0 0 0-11.776-20.48V109.44h-2.816C902.16384 83.2 868.88384 65.28 836.43584 65.28H186.19584C153.81184 65.28 120.53184 83.2 99.85984 109.44h-2.752v3.712a97.408 97.408 0 0 0-11.84 20.48L8.08384 322.176c-15.296 37.376-7.68 88.96 17.664 120.128l424.064 519.552c15.68 19.2 38.144 30.208 61.504 30.208 23.488 0 45.888-11.072 61.568-30.208l263.936-323.52 160.128-196.352c25.856-31.616 33.28-82.112 17.728-120.128" fill="#000000" p-id="13921"></path></svg>