<?xml version="1.0" standalone="no"?><!DOCTYPE svg PUBLIC "-//W3C//DTD SVG 1.1//EN" "http://www.w3.org/Graphics/SVG/1.1/DTD/svg11.dtd"><svg t="1586351772516" class="icon" viewBox="0 0 1024 1024" version="1.1" xmlns="http://www.w3.org/2000/svg" p-id="5243" xmlns:xlink="http://www.w3.org/1999/xlink" width="200" height="200"><defs><style type="text/css"></style></defs><path d="M925.382901 382.808565a190.949625 190.949625 0 0 1-12.15832 31.739616h0.063991l-0.703903 1.279823c-35.451103 76.59742-128.110305 226.912658-128.110305 226.912657l-0.511929-0.895876-27.068261 47.545433h130.541969L638.062588 1024l56.568186-227.61656H591.988952l35.643076-150.507212c-28.796023 7.039028-62.967303 16.701693-103.409716 29.819881 0 0-54.648452 32.315536-157.482248-62.199408 0 0-69.366419-61.623488-29.115978-77.045358 17.08564-6.59109 82.996536-14.845949 134.829376-21.948969 70.134313-9.534683 113.264355-14.653976 113.264356-14.653976s-216.098151 3.32754-267.355072-4.863328c-51.320911-8.126877-116.335931-94.450954-130.158022-170.344471 0 0-21.437039-41.658246 46.073636-21.948968s346.832094 76.789393 346.832094 76.789393-363.277822-112.43247-387.466481-139.884678c-24.188659-27.388217-71.158171-149.739317-65.079011-224.864941 0 0 2.687629-18.74941 21.756995-13.758099 0 0 268.570904 123.950879 452.289527 191.78151 183.654633 67.830631 343.376571 102.321867 322.771417 190.053749z" fill="#000000" p-id="5244"></path></svg>