<?xml version="1.0" standalone="no"?><!DOCTYPE svg PUBLIC "-//W3C//DTD SVG 1.1//EN" "http://www.w3.org/Graphics/SVG/1.1/DTD/svg11.dtd"><svg t="1586351839288" class="icon" viewBox="0 0 1024 1024" version="1.1" xmlns="http://www.w3.org/2000/svg" p-id="6869" xmlns:xlink="http://www.w3.org/1999/xlink" width="200" height="200"><defs><style type="text/css"></style></defs><path d="M950.8512 283.52L735.1072 46.336A136.32 136.32 0 0 0 695.8112 17.92v281.344l266.432 0.064c-3.584-5.568-7.296-11.264-11.392-15.744" fill="#000000" p-id="6870"></path><path d="M695.8112 597.76H358.8512a42.368 42.368 0 0 1-42.112-42.624c0-23.552 18.88-42.624 42.112-42.624h336.96c23.296 0 42.176 19.072 42.176 42.624a42.368 42.368 0 0 1-42.176 42.624m0 213.12H358.8512a42.368 42.368 0 0 1-42.112-42.624c0-23.552 18.88-42.624 42.112-42.624h336.96c23.296 0 42.176 19.072 42.176 42.624a42.368 42.368 0 0 1-42.176 42.624m294.592-426.24H695.9392a84.928 84.928 0 0 1-84.352-85.44V0.96H147.9712A84.736 84.736 0 0 0 64.0032 86.4v852.288A84.736 84.736 0 0 0 147.9072 1024h758.848a84.736 84.736 0 0 0 83.904-85.44V386.816c0-0.768-0.192-1.536-0.256-2.24" fill="#000000" p-id="6871"></path></svg>