<?xml version="1.0" standalone="no"?><!DOCTYPE svg PUBLIC "-//W3C//DTD SVG 1.1//EN" "http://www.w3.org/Graphics/SVG/1.1/DTD/svg11.dtd"><svg t="1586351755488" class="icon" viewBox="0 0 1024 1024" version="1.1" xmlns="http://www.w3.org/2000/svg" p-id="4701" xmlns:xlink="http://www.w3.org/1999/xlink" width="200" height="200"><defs><style type="text/css"></style></defs><path d="M511.872 1022.592C229.632 1022.592 0 793.28 0 511.36S229.632 0.256 511.872 0.256s511.872 229.312 511.872 511.168-229.632 511.168-511.872 511.168z" fill="#000000" p-id="4702"></path><path d="M720.448 523.008a37.376 37.376 0 0 0-52.48-0.064l-119.552 118.528V291.584a36.544 36.544 0 1 0-73.088 0v351.808L355.072 521.6a36.608 36.608 0 1 0-51.968 51.584L485.12 757.12a36.8 36.8 0 0 0 51.968 0.256l0.064-0.128 0.128-0.064 183.04-182.208a36.672 36.672 0 0 0 0-51.904z" fill="#FFFFFF" p-id="4703"></path></svg>