<?xml version="1.0" standalone="no"?><!DOCTYPE svg PUBLIC "-//W3C//DTD SVG 1.1//EN" "http://www.w3.org/Graphics/SVG/1.1/DTD/svg11.dtd"><svg t="1586352052655" class="icon" viewBox="0 0 1024 1024" version="1.1" xmlns="http://www.w3.org/2000/svg" p-id="12694" xmlns:xlink="http://www.w3.org/1999/xlink" width="200" height="200"><defs><style type="text/css"></style></defs><path d="M1019.584 682.688l-195.84-588.16a88.128 88.128 0 0 0-83.84-61.952H283.776c-38.4 0-72.192 25.088-83.84 61.952L4.096 680.32a89.728 89.728 0 0 0-4.096 26.88v194.624c0 49.088 39.296 88.704 88 88.704H935.68c48.64 0 88-39.68 88-88.704v-192.512c0-8.96-1.408-17.92-4.16-26.688z m-113.088 13.12h-178.688a33.28 33.28 0 0 0-33.152 33.408v43.968a33.28 33.28 0 0 1-33.152 33.408H362.24a33.28 33.28 0 0 1-33.152-33.408v-43.968a33.28 33.28 0 0 0-33.088-33.408H117.248a33.28 33.28 0 0 1-31.808-42.624l163.392-522.944a33.088 33.088 0 0 1 31.744-24h462.528c14.656 0 27.648 9.728 31.744 24l163.392 522.944a33.344 33.344 0 0 1-31.744 42.624z" fill="#000000" p-id="12695"></path><path d="M255.936 622.08L182.784 511.552H840.96L767.808 622.08zM255.936 327.36L328.96 437.888h365.632l73.152-110.528zM365.632 253.632L328.96 179.968h365.632l-36.544 73.664z" fill="#000000" p-id="12696"></path></svg>