<?xml version="1.0" standalone="no"?><!DOCTYPE svg PUBLIC "-//W3C//DTD SVG 1.1//EN" "http://www.w3.org/Graphics/SVG/1.1/DTD/svg11.dtd"><svg t="1586352083049" class="icon" viewBox="0 0 1024 1024" version="1.1" xmlns="http://www.w3.org/2000/svg" p-id="13374" xmlns:xlink="http://www.w3.org/1999/xlink" width="200" height="200"><defs><style type="text/css"></style></defs><path d="M160.256 562.944c19.136-2.048 32.768-9.536 45.696-23.872 34.816-38.848 72.96-55.872 112.512-50.432 32.768 4.736 58.688 23.872 77.76 38.208 6.144 4.736 12.288 8.832 17.088 11.52 20.48 10.944 36.096 10.944 43.648 4.8 5.44-4.096 4.736-10.88 3.392-16.32-4.096-14.336-36.8-81.216-53.888-111.872-16.384-29.312-17.728-62.72-4.096-90.048 17.728-34.752 57.28-54.528 117.312-60.672h1.344c14.336-0.64 39.552-4.096 47.104-16.384 7.488-12.928 2.048-41.6-15.04-77.056a95.488 95.488 0 0 1-10.88-75.712c2.688-9.6 6.144-19.072 11.52-27.968a424.32 424.32 0 0 0-41.6-2.048c-60.672 0-119.296 11.584-173.888 35.456a445.824 445.824 0 0 0-142.528 96.192 448 448 0 0 0-131.648 316.416c0 11.648 0.704 22.528 1.408 33.472 38.848 13.632 70.912 19.072 94.784 16.32z m669.056 191.68c-12.928 22.464-27.968 48.384-55.936 66.112-30.72 18.432-70.912 23.232-125.44 14.336-60.736-10.24-114.56 2.752-137.792 32.064-22.528 27.968-13.632 68.864-1.344 100.224h2.688c60.736 0 119.36-11.52 173.952-35.456a445.824 445.824 0 0 0 142.528-96.128 449.472 449.472 0 0 0 96.128-142.528c1.408-2.752 2.048-5.44 3.392-7.552-25.856 2.752-45.632 8.896-59.968 19.84-17.088 12.928-27.264 30.656-38.208 49.088z" fill="#000000" p-id="13375"></path><path d="M924.16 338.56a445.888 445.888 0 0 0-96.192-142.528 449.472 449.472 0 0 0-202.56-116.608 57.728 57.728 0 0 0-21.824 31.36 32.512 32.512 0 0 0 4.096 27.264l1.344 2.752c28.672 57.984 33.408 105.024 13.632 138.432-17.024 29.376-50.432 45.696-98.176 47.744-35.456 3.456-59.328 12.992-66.176 26.624-4.8 8.832-1.344 21.12 2.752 29.312 14.272 25.92 52.48 101.632 59.968 125.44 9.6 32.128 0 64.192-24.512 83.968-29.376 23.168-72.96 23.872-114.56 0.64-8.192-4.096-15.744-10.24-23.872-16.32-38.912-28.672-63.488-43.008-104.32 3.392-23.232 25.92-51.2 40.96-85.312 44.992-6.784 0.64-13.632 1.344-21.12 1.344-21.12 0-45.056-3.392-70.976-10.88 5.504 23.872 12.992 47.04 23.232 70.208a445.888 445.888 0 0 0 96.128 142.592c40.96 40.96 89.344 73.6 142.528 96.128a417.28 417.28 0 0 0 102.336 29.312 196.288 196.288 0 0 1-7.488-57.92 129.92 129.92 0 0 1 27.264-76.416c19.776-25.216 50.496-43.648 88-53.184 33.408-8.192 71.616-8.896 110.464-2.752 38.208 6.144 65.472 4.096 81.856-5.44 14.272-8.832 23.168-23.872 34.048-42.944 23.872-42.24 57.344-99.584 173.952-101.632a455.232 455.232 0 0 0 11.584-101.632 468.608 468.608 0 0 0-36.16-173.184z" fill="#000000" p-id="13376"></path><path d="M511.488 1.024A511.68 511.68 0 0 0 0 512.512 511.68 511.68 0 0 0 511.488 1024a511.68 511.68 0 0 0 511.488-511.488A511.68 511.68 0 0 0 511.488 1.024z m0 937.728a426.432 426.432 0 0 1-426.24-426.24 426.432 426.432 0 0 1 426.24-426.24 426.432 426.432 0 0 1 426.24 426.24 426.432 426.432 0 0 1-426.24 426.24z" fill="#000000" p-id="13377"></path></svg>