<?xml version="1.0" standalone="no"?><!DOCTYPE svg PUBLIC "-//W3C//DTD SVG 1.1//EN" "http://www.w3.org/Graphics/SVG/1.1/DTD/svg11.dtd"><svg t="1586393720047" class="icon" viewBox="0 0 1024 1024" version="1.1" xmlns="http://www.w3.org/2000/svg" p-id="13398" xmlns:xlink="http://www.w3.org/1999/xlink" width="200" height="200"><defs><style type="text/css"></style></defs><path d="M810.666667 853.333333H213.333333a42.666667 42.666667 0 0 0 0 85.333334h597.333334a42.666667 42.666667 0 0 0 0-85.333334zM213.333333 768h3.84l177.92-16.213333a85.333333 85.333333 0 0 0 51.626667-24.32l384-384a81.92 81.92 0 0 0-2.986667-115.626667L710.826667 110.933333A85.333333 85.333333 0 0 0 597.333333 107.946667l-384 384a85.333333 85.333333 0 0 0-24.32 51.626666L170.666667 721.493333a42.666667 42.666667 0 0 0 12.373333 34.133334A42.666667 42.666667 0 0 0 213.333333 768zM651.52 170.666667L768 287.146667l-85.333333 83.2L568.32 256z" p-id="13399"></path></svg>