<?xml version="1.0" standalone="no"?><!DOCTYPE svg PUBLIC "-//W3C//DTD SVG 1.1//EN" "http://www.w3.org/Graphics/SVG/1.1/DTD/svg11.dtd"><svg t="1586352056702" class="icon" viewBox="0 0 1024 1024" version="1.1" xmlns="http://www.w3.org/2000/svg" p-id="12830" xmlns:xlink="http://www.w3.org/1999/xlink" width="200" height="200"><defs><style type="text/css"></style></defs><path d="M511.48864 614.4a42.24 42.24 0 0 1-22.848-6.72L0.00064 292.48v581.376A85.824 85.824 0 0 0 85.31264 960h852.352c46.976 0 85.12-38.464 85.312-86.08V292.928L534.40064 607.68a42.368 42.368 0 0 1-22.912 6.72" fill="#000000" p-id="12831"></path><path d="M937.66464 96H85.31264C38.40064 96 0.19264 134.464 0.00064 182.144v6.592l511.488 331.264 511.488-329.408v-8.448A85.76 85.76 0 0 0 937.66464 96" fill="#000000" p-id="12832"></path></svg>