<?xml version="1.0" standalone="no"?><!DOCTYPE svg PUBLIC "-//W3C//DTD SVG 1.1//EN" "http://www.w3.org/Graphics/SVG/1.1/DTD/svg11.dtd"><svg t="1586352199955" class="icon" viewBox="0 0 1024 1024" version="1.1" xmlns="http://www.w3.org/2000/svg" p-id="15504" xmlns:xlink="http://www.w3.org/1999/xlink" width="200" height="200"><defs><style type="text/css"></style></defs><path d="M511.488 1.024c282.048 0 511.488 229.44 511.488 511.488S793.6 1024 511.488 1024 0 794.56 0 512.512C0 230.528 229.44 1.024 511.488 1.024z m266.88 660.672a42.624 42.624 0 0 0-73.792-42.624 213.888 213.888 0 0 1-184.64 106.56 214.08 214.08 0 0 1-184.704-106.56 42.624 42.624 0 0 0-73.792 42.688 299.584 299.584 0 0 0 258.56 149.12 299.456 299.456 0 0 0 258.304-149.184z m-480-319.68v127.872a42.624 42.624 0 0 0 85.248 0V342.016a42.624 42.624 0 1 0-85.248 0z m340.992 0v127.872a42.624 42.624 0 0 0 85.248 0V342.016a42.624 42.624 0 1 0-85.248 0z" fill="#000000" p-id="15505"></path></svg>