<?xml version="1.0" standalone="no"?><!DOCTYPE svg PUBLIC "-//W3C//DTD SVG 1.1//EN" "http://www.w3.org/Graphics/SVG/1.1/DTD/svg11.dtd"><svg t="1591940484914" class="icon" viewBox="0 0 1024 1024" version="1.1" xmlns="http://www.w3.org/2000/svg" p-id="8130" xmlns:xlink="http://www.w3.org/1999/xlink" width="200" height="200"><defs><style type="text/css"></style></defs><path d="M975.36 491.52c0-7.68-2.56-12.8-5.12-20.48l-171.52-335.36c-7.68-17.92-25.6-30.72-46.08-30.72h-478.72c-20.48 0-38.4 12.8-46.08 30.72l-174.08 340.48c-2.56 5.12-5.12 12.8-5.12 20.48v404.48c0 15.36 10.24 25.6 25.6 25.6h875.52c15.36 0 25.6-10.24 25.6-25.6v-409.6z m-872.96-5.12l163.84-320c5.12-7.68 12.8-12.8 23.04-12.8l448 2.56c10.24 0 17.92 5.12 23.04 12.8l161.28 317.44c2.56 2.56 2.56 7.68 2.56 12.8v15.36h-181.76c-15.36 0-25.6 10.24-25.6 25.6v76.8h-409.6v-76.8c0-15.36-10.24-25.6-25.6-25.6h-181.76v-12.8c0-5.12 0-10.24 2.56-15.36z m821.76 384h-824.32v-307.2h156.16v76.8c0 15.36 10.24 25.6 25.6 25.6h460.8c15.36 0 25.6-10.24 25.6-25.6v-76.8h156.16v307.2z" p-id="8131"></path><path d="M512 307.2c12.8 0 25.6-10.24 25.6-25.6v-51.2c0-15.36-12.8-25.6-25.6-25.6s-25.6 10.24-25.6 25.6v51.2c0 15.36 12.8 25.6 25.6 25.6zM512 563.2c12.8 0 25.6-10.24 25.6-25.6v-51.2c0-15.36-12.8-25.6-25.6-25.6s-25.6 10.24-25.6 25.6v51.2c0 15.36 12.8 25.6 25.6 25.6zM588.8 384c0 15.36 12.8 25.6 25.6 25.6h51.2c12.8 0 25.6-10.24 25.6-25.6s-12.8-25.6-25.6-25.6h-51.2c-12.8 0-25.6 10.24-25.6 25.6zM358.4 409.6h51.2c12.8 0 25.6-10.24 25.6-25.6s-12.8-25.6-25.6-25.6h-51.2c-12.8 0-25.6 10.24-25.6 25.6s12.8 25.6 25.6 25.6z" p-id="8132"></path><path d="M435.2 307.2m-25.6 0a25.6 25.6 0 1 0 51.2 0 25.6 25.6 0 1 0-51.2 0Z" p-id="8133"></path><path d="M588.8 307.2m-25.6 0a25.6 25.6 0 1 0 51.2 0 25.6 25.6 0 1 0-51.2 0Z" p-id="8134"></path><path d="M606.72 478.72c10.24-10.24 10.24-25.6 0-35.84-10.24-10.24-25.6-10.24-35.84 0-10.24 10.24-10.24 25.6 0 35.84s25.6 10.24 35.84 0z" p-id="8135"></path><path d="M512 384m-25.6 0a25.6 25.6 0 1 0 51.2 0 25.6 25.6 0 1 0-51.2 0Z" p-id="8136"></path><path d="M453.12 442.88c-10.24-10.24-25.6-10.24-35.84 0-10.24 10.24-10.24 25.6 0 35.84s25.6 10.24 35.84 0 10.24-25.6 0-35.84z" p-id="8137"></path></svg>