<?xml version="1.0" standalone="no"?><!DOCTYPE svg PUBLIC "-//W3C//DTD SVG 1.1//EN" "http://www.w3.org/Graphics/SVG/1.1/DTD/svg11.dtd"><svg t="1586352097299" class="icon" viewBox="0 0 1024 1024" version="1.1" xmlns="http://www.w3.org/2000/svg" p-id="13650" xmlns:xlink="http://www.w3.org/1999/xlink" width="200" height="200"><defs><style type="text/css"></style></defs><path d="M180.864 587.136h35.52c14.912 0 29.184 5.888 39.808 16.32l45.632 44.736a28.416 28.416 0 0 0 45.312-7.68l74.624-151.04a22.72 22.72 0 0 1 41.344 1.216l85.376 202.752a56.832 56.832 0 0 0 101.888 5.888l55.168-97.728a28.416 28.416 0 0 1 24.768-14.464h121.344a38.272 38.272 0 0 0 0-76.48h-152.512a28.416 28.416 0 0 0-24.832 14.72L627.84 609.024a22.72 22.72 0 0 1-40.96-2.624l-92.416-232.96a56.832 56.832 0 0 0-104.96-1.6L320.64 531.072a22.72 22.72 0 0 1-36.672 7.296l-12.16-11.712a56.832 56.832 0 0 0-39.488-16H179.84a37.76 37.76 0 0 0-37.696 37.76v0.512a38.784 38.784 0 0 0 38.784 38.208zM60.8 222.848L458.688 14.016a113.664 113.664 0 0 1 105.856 0.128l397.696 209.728c37.248 19.712 60.608 58.368 60.608 100.544v373.76c0 41.984-23.104 80.512-60.16 100.288L565.12 1010.56a113.664 113.664 0 0 1-107.008 0L60.16 798.464A113.664 113.664 0 0 1 0 698.176V323.456c0-42.24 23.424-80.96 60.8-100.608h0.064z" fill="#000000" p-id="13651"></path></svg>