<?xml version="1.0" standalone="no"?><!DOCTYPE svg PUBLIC "-//W3C//DTD SVG 1.1//EN" "http://www.w3.org/Graphics/SVG/1.1/DTD/svg11.dtd"><svg t="1586762816725" class="icon" viewBox="0 0 1024 1024" version="1.1" xmlns="http://www.w3.org/2000/svg" p-id="1785" xmlns:xlink="http://www.w3.org/1999/xlink" width="200" height="200"><defs><style type="text/css"></style></defs><path d="M512 85.333333a426.666667 426.666667 0 1 0 426.666667 426.666667A426.666667 426.666667 0 0 0 512 85.333333z m115.626667 481.706667a42.666667 42.666667 0 0 1 0 60.586667 42.666667 42.666667 0 0 1-60.586667 0L512 572.16l-55.04 55.466667a42.666667 42.666667 0 0 1-60.586667 0 42.666667 42.666667 0 0 1 0-60.586667l55.466667-55.04-55.466667-55.04a42.666667 42.666667 0 0 1 60.586667-60.586667l55.04 55.466667 55.04-55.466667a42.666667 42.666667 0 0 1 60.586667 60.586667L572.16 512z" p-id="1786"></path></svg>