<?xml version="1.0" standalone="no"?><!DOCTYPE svg PUBLIC "-//W3C//DTD SVG 1.1//EN" "http://www.w3.org/Graphics/SVG/1.1/DTD/svg11.dtd"><svg t="1586351940440" class="icon" viewBox="0 0 1024 1024" version="1.1" xmlns="http://www.w3.org/2000/svg" p-id="9580" xmlns:xlink="http://www.w3.org/1999/xlink" width="200" height="200"><defs><style type="text/css"></style></defs><path d="M511.872 0.256C229.632 0.256 0 229.568 0 511.424s229.632 511.168 511.872 511.168 511.872-229.312 511.872-511.168S794.112 0.256 511.872 0.256z m208.768 668.608a36.48 36.48 0 1 1-51.776 51.52l-157.184-157.44-157.76 155.84a36.544 36.544 0 0 1-51.392-51.904L460.16 511.232 303.104 353.984a36.48 36.48 0 1 1 51.84-51.52L512 459.904l157.76-155.84a36.544 36.544 0 0 1 51.392 51.904L563.648 511.552l156.992 157.312z" fill="#000000" p-id="9581"></path></svg>