<?xml version="1.0" standalone="no"?><!DOCTYPE svg PUBLIC "-//W3C//DTD SVG 1.1//EN" "http://www.w3.org/Graphics/SVG/1.1/DTD/svg11.dtd"><svg t="1586393694331" class="icon" viewBox="0 0 1024 1024" version="1.1" xmlns="http://www.w3.org/2000/svg" p-id="12910" xmlns:xlink="http://www.w3.org/1999/xlink" width="200" height="200"><defs><style type="text/css"></style></defs><path d="M779.093333 128H244.906667A116.906667 116.906667 0 0 0 128 244.906667v534.186666A116.906667 116.906667 0 0 0 244.906667 896h534.186666A116.906667 116.906667 0 0 0 896 779.093333V244.906667A116.906667 116.906667 0 0 0 779.093333 128zM298.666667 469.333333H213.333333V384h85.333334z m-85.333334 85.333334h85.333334v85.333333H213.333333z m597.333334-85.333334h-85.333334V384h85.333334z m-85.333334 85.333334h85.333334v85.333333h-85.333334z m85.333334-309.76V298.666667h-85.333334V213.333333h53.76a31.573333 31.573333 0 0 1 31.573334 31.573334zM244.906667 213.333333H298.666667v85.333334H213.333333V244.906667A31.573333 31.573333 0 0 1 244.906667 213.333333zM213.333333 779.093333V725.333333h85.333334v85.333334H244.906667a31.573333 31.573333 0 0 1-31.573334-31.573334z m597.333334 0a31.573333 31.573333 0 0 1-31.573334 31.573334H725.333333v-85.333334h85.333334z" p-id="12911"></path></svg>