<?xml version="1.0" standalone="no"?><!DOCTYPE svg PUBLIC "-//W3C//DTD SVG 1.1//EN" "http://www.w3.org/Graphics/SVG/1.1/DTD/svg11.dtd"><svg t="1586352017505" class="icon" viewBox="0 0 1024 1024" version="1.1" xmlns="http://www.w3.org/2000/svg" p-id="11746" xmlns:xlink="http://www.w3.org/1999/xlink" width="200" height="200"><defs><style type="text/css"></style></defs><path d="M385.792 798.464a118.4 118.4 0 0 1-1.344 10.432c-1.152 7.296-2.816 18.176-4.864 35.712-1.088 9.856-3.008 20.672-4.096 35.52-2.048 27.328 4.096 101.824 4.096 108.672 0 6.848-4.928 15.936-10.88 21.568-8.512 8.128-25.664 9.472-33.536 8.768a28.992 28.992 0 0 1-14.464-3.52C111.36 903.296 36.992 780.48 72.448 612.032c10.688-52.608 35.456-101.76 60.288-147.392 28.416-52.608 53.184-101.76 56.768-154.368 0-17.6 10.624-28.16 28.352-31.616 14.208-3.52 28.352 3.52 39.04 14.08 17.664 31.552 28.352 59.648 35.392 87.68C391.68 247.104 434.176 134.784 419.968 40a28.16 28.16 0 0 1 10.624-31.552c7.104-7.04 21.312-10.56 31.936-7.04 7.04 3.52 166.656 52.672 262.4 273.728-3.584-17.536-7.104-35.072-14.208-49.088-7.04-14.08 0-31.616 10.624-42.112 10.624-7.04 28.352-10.56 42.56 0 39.04 24.512 237.568 221.056 226.944 456.192-7.104 150.912-106.368 280.704-287.232 379.008-3.52 3.52-7.04 3.52-10.624 3.52-11.456 0.896-18.56 0.896-21.248 0a43.776 43.776 0 0 1-16-10.88 44.352 44.352 0 0 1-10.176-22.656c0-3.52-0.32-5.76 0.832-11.2a52.608 52.608 0 0 1 4.032-11.456c78.016-147.392 35.456-357.952-92.16-477.248C536.96 573.44 490.88 633.088 451.84 682.24c-29.568 38.976-59.072 74.88-66.112 116.224z" fill="#000000" p-id="11747"></path></svg>