<?xml version="1.0" standalone="no"?><!DOCTYPE svg PUBLIC "-//W3C//DTD SVG 1.1//EN" "http://www.w3.org/Graphics/SVG/1.1/DTD/svg11.dtd"><svg t="1586352186591" class="icon" viewBox="0 0 1024 1024" version="1.1" xmlns="http://www.w3.org/2000/svg" p-id="15118" xmlns:xlink="http://www.w3.org/1999/xlink" width="200" height="200"><defs><style type="text/css"></style></defs><path d="M361.344 0c199.488 0 361.28 156.992 361.28 350.592 0 193.664-161.792 350.592-361.344 350.592S0 544.256 0 350.592c0-53.12 7.424-82.56 19.584-114.048 12.224-31.424 34.24-13.568 48.768 0.96 14.592 14.4 98.368 101.44 114.56 118.016a42.432 42.432 0 0 0 59.52 1.088l121.152-116.16A41.856 41.856 0 0 0 364.8 181.12S268.48 81.28 248.448 61.312c-19.968-19.84-30.016-33.024 8.448-45.12C295.296 4.16 310.144 0 361.344 0z m404.608 599.296c20.608 20.352 232.32 228.288 232.32 228.288s26.24 24.576 25.216 48c-1.024 23.424-25.984 44.992-25.984 44.992l-92.16 84.736s-15.36 15.552-43.2 15.552c-27.776 0-52.864-24.96-52.864-24.96s-217.792-214.592-237.824-234.432c-6.912-6.08-8.96-26.432 5.056-33.28 13.952-8.576 60.416-34.752 90.88-65.024 25.024-24.704 38.848-45.056 53.952-65.664 10.944-17.92 28.16-14.656 44.608 1.792z" fill="#000000" p-id="15119"></path></svg>