<?xml version="1.0" standalone="no"?><!DOCTYPE svg PUBLIC "-//W3C//DTD SVG 1.1//EN" "http://www.w3.org/Graphics/SVG/1.1/DTD/svg11.dtd"><svg t="1586352029397" class="icon" viewBox="0 0 1024 1024" version="1.1" xmlns="http://www.w3.org/2000/svg" p-id="12016" xmlns:xlink="http://www.w3.org/1999/xlink" width="200" height="200"><defs><style type="text/css"></style></defs><path d="M341.312 391.424c0-96 76.544-173.952 170.688-173.952 94.08 0 170.688 78.016 170.688 173.952 0 95.936-76.544 173.952-170.688 173.952-94.08 0-170.688-78.016-170.688-173.952M512.448 0h-0.896C300.16 0.192 128 175.744 128 391.424c0 109.44 85.376 265.024 168.96 391.424a2750.784 2750.784 0 0 0 155.328 211.456c14.528 18.56 36.48 29.44 59.776 29.696h0.128a76.16 76.16 0 0 0 59.328-29.44 2748.672 2748.672 0 0 0 155.52-211.712C810.624 656.448 896 500.864 896 391.424 896 175.744 723.904 0.192 512.448 0" fill="#000000" p-id="12017"></path></svg>