<?xml version="1.0" standalone="no"?><!DOCTYPE svg PUBLIC "-//W3C//DTD SVG 1.1//EN" "http://www.w3.org/Graphics/SVG/1.1/DTD/svg11.dtd"><svg t="1586352143326" class="icon" viewBox="0 0 1024 1024" version="1.1" xmlns="http://www.w3.org/2000/svg" p-id="14326" xmlns:xlink="http://www.w3.org/1999/xlink" width="200" height="200"><defs><style type="text/css"></style></defs><path d="M987.13728 253.76h-86.4c21.376-19.008 40.64-43.712 49.344-72.192 10.688-35.2 4.16-70.08-18.944-100.864a36.16 36.16 0 0 0-5.312-5.76c-111.168-96.192-261.632-3.52-322.752 41.92a37.248 37.248 0 0 0-9.344 51.264 36.224 36.224 0 0 0 50.816 9.728l3.328-2.432c35.008-26.048 153.664-105.472 227.2-46.784 6.912 10.368 8.448 20.096 5.12 31.04-8.704 28.48-45.312 54.784-63.04 60.8-68.8 26.112-91.2 29.248-119.936 31.36-2.432 0.192-4.416 1.28-6.656 1.856H589.56928c-1.6-2.56-2.944-5.248-5.248-7.36-37.76-35.52-127.104-119.424-144.832-131.392C305.08928 21.632 183.04128 7.04 104.76928 74.88a42.176 42.176 0 0 0-5.312 5.76c-23.104 30.72-29.632 65.664-18.88 100.864 8.64 28.544 27.968 53.248 49.152 72.192H36.48128A36.8 36.8 0 0 0 0.00128 290.752v185.088c0 20.48 16.384 36.992 36.544 36.992v362.112c0 64.512 47.168 117.056 105.152 117.056h737.28c58.688 0 108.16-53.568 108.16-117.12V512.896c20.224 0 36.608-16.576 36.608-36.992V290.752a36.736 36.736 0 0 0-36.608-36.992zM155.52128 128.64c73.216-58.24 193.792 13.44 245.248 49.28 7.232 5.248 42.88 37.824 83.776 75.84H340.03328c-2.176-0.64-4.224-1.664-6.592-1.856-28.8-2.112-51.2-5.312-121.28-31.872-16.384-5.504-53.056-31.808-61.76-60.352a34.368 34.368 0 0 1 5.12-31.04z m720.384 419.84H144.64128a36.8 36.8 0 0 1-36.544-36.992c0-20.48 16.384-37.056 36.48-37.056h731.264c20.224 0 36.608 16.64 36.608 37.056 0 20.416-16.384 36.992-36.608 36.992z" fill="#000000" p-id="14327"></path></svg>