<?xml version="1.0" standalone="no"?><!DOCTYPE svg PUBLIC "-//W3C//DTD SVG 1.1//EN" "http://www.w3.org/Graphics/SVG/1.1/DTD/svg11.dtd"><svg t="1586351918164" class="icon" viewBox="0 0 1024 1024" version="1.1" xmlns="http://www.w3.org/2000/svg" p-id="8905" xmlns:xlink="http://www.w3.org/1999/xlink" width="200" height="200"><defs><style type="text/css"></style></defs><path d="M743.04 496.32a49.152 49.152 0 1 1 0.128-98.24 49.152 49.152 0 0 1-0.064 98.24z m-492.032 0.832a49.152 49.152 0 1 1 0.128-98.304 49.152 49.152 0 0 1-0.128 98.304z m23.104-228.928A211.328 211.328 0 0 1 485.248 57.088h19.584a211.328 211.328 0 0 1 211.136 211.136v10.432H274.112V268.16z m663.936 33.92a24.512 24.512 0 0 0-24.576-23.488h-148.48V268.16A260.48 260.48 0 0 0 504.896 8h-19.584a260.48 260.48 0 0 0-260.224 260.224v10.432H78.976a24.512 24.512 0 0 0-24.512 23.616L32 899.584v2.688a123.2 123.2 0 0 0 122.432 113.728h685.12a123.136 123.136 0 0 0 122.432-116.8l-24-596.992z" fill="#000000" p-id="8906"></path></svg>