<?xml version="1.0" standalone="no"?><!DOCTYPE svg PUBLIC "-//W3C//DTD SVG 1.1//EN" "http://www.w3.org/Graphics/SVG/1.1/DTD/svg11.dtd"><svg t="1586351885262" class="icon" viewBox="0 0 1024 1024" version="1.1" xmlns="http://www.w3.org/2000/svg" p-id="8091" xmlns:xlink="http://www.w3.org/1999/xlink" width="200" height="200"><defs><style type="text/css"></style></defs><path d="M863.78112 373.504c-42.432 0-77.12 34.688-77.12 77.184V360.576c0-42.432-34.688-77.12-77.184-77.12-42.432 0-77.12 34.688-77.12 77.12v-54.912c0-42.432-34.688-77.12-77.184-77.12-42.496 0-77.12 34.688-77.12 77.12V77.568c0-42.496-34.688-77.184-77.184-77.184-42.496 0-77.12 34.688-77.12 77.184v551.68L232.54912 537.984a80.256 80.256 0 0 0-113.152 0 80.256 80.256 0 0 0 0 113.152l252.352 252.352a320.448 320.448 0 0 0 249.472 118.976c171.648 0 311.936-134.528 320-303.488h0.384V450.432a78.464 78.464 0 0 0-77.824-76.928z" fill="#000000" p-id="8092"></path></svg>