<?xml version="1.0" standalone="no"?><!DOCTYPE svg PUBLIC "-//W3C//DTD SVG 1.1//EN" "http://www.w3.org/Graphics/SVG/1.1/DTD/svg11.dtd"><svg t="1586352176296" class="icon" viewBox="0 0 1024 1024" version="1.1" xmlns="http://www.w3.org/2000/svg" p-id="14857" xmlns:xlink="http://www.w3.org/1999/xlink" width="200" height="200"><defs><style type="text/css"></style></defs><path d="M937.6 96a85.76 85.76 0 0 1 85.376 86.144v691.776A85.824 85.824 0 0 1 937.664 960H85.376c-5.952 0-11.648-0.64-17.28-1.792-0.768-0.128-1.536-0.512-2.368-0.768a78.912 78.912 0 0 1-13.568-4.224 77.952 77.952 0 0 1-12.48-6.848c-0.64-0.384-1.408-0.64-1.984-1.088-3.072-2.048-5.696-4.544-8.384-6.976-1.408-1.28-2.944-2.24-4.288-3.584-2.816-2.752-5.184-6.016-7.616-9.216-0.896-1.28-1.92-2.24-2.816-3.52-1.664-2.368-2.816-5.12-4.16-7.68-1.28-2.368-2.688-4.48-3.712-6.912-0.384-0.896-0.512-1.856-0.832-2.688A86.016 86.016 0 0 1 0 873.92V182.08A85.824 85.824 0 0 1 85.312 96H937.6zM596.736 528h255.744V268.8H596.736v259.2z m-170.496 43.2a43.136 43.136 0 0 0-13.44-31.168 41.984 41.984 0 0 0-29.184-12.032H213.12a42.88 42.88 0 0 0-42.624 43.2 42.88 42.88 0 0 0 42.624 43.2h170.496a42.88 42.88 0 0 0 42.624-43.2z m170.496 172.8a43.136 43.136 0 0 0-13.44-31.168 41.92 41.92 0 0 0-29.184-12.032H213.12a42.88 42.88 0 0 0-42.624 43.2 42.88 42.88 0 0 0 42.624 43.2h340.992a42.88 42.88 0 0 0 42.624-43.2z" fill="#000000" p-id="14858"></path></svg>