<?xml version="1.0" standalone="no"?><!DOCTYPE svg PUBLIC "-//W3C//DTD SVG 1.1//EN" "http://www.w3.org/Graphics/SVG/1.1/DTD/svg11.dtd"><svg t="1586351767609" class="icon" viewBox="0 0 1024 1024" version="1.1" xmlns="http://www.w3.org/2000/svg" p-id="5108" xmlns:xlink="http://www.w3.org/1999/xlink" width="200" height="200"><defs><style type="text/css"></style></defs><path d="M689.408 376.128H348.416a42.624 42.624 0 0 1 0-85.312h340.992a42.624 42.624 0 0 1 0 85.312m0 170.496H348.416a42.624 42.624 0 0 1 0-85.248h340.992a42.624 42.624 0 0 1 0 85.248m0 170.496H348.416a42.624 42.624 0 0 1 0-85.248h340.992a42.624 42.624 0 0 1 0 85.248M511.488 0.96C229.504 1.024 0 230.528 0 512.576 0 794.496 229.504 1024 511.488 1024c282.048 0 511.488-229.504 511.488-511.488C1022.976 230.4 793.6 1.024 511.488 1.024" fill="#000000" p-id="5109"></path></svg>