<?xml version="1.0" standalone="no"?><!DOCTYPE svg PUBLIC "-//W3C//DTD SVG 1.1//EN" "http://www.w3.org/Graphics/SVG/1.1/DTD/svg11.dtd"><svg t="1586352114670" class="icon" viewBox="0 0 1024 1024" version="1.1" xmlns="http://www.w3.org/2000/svg" p-id="14055" xmlns:xlink="http://www.w3.org/1999/xlink" width="200" height="200"><defs><style type="text/css"></style></defs><path d="M861.632 206.272a44.608 44.608 0 0 0-61.824 13.696 46.08 46.08 0 0 0 13.056 63.04c1.6 1.024 15.296 10.624 32.768 29.76 35.584 39.04 87.36 118.4 87.36 251.392 0 138.048-53.312 218.56-87.36 255.936-14.976 16.384-26.24 24.576-27.584 25.536a45.952 45.952 0 0 0-12.48 63.36 44.8 44.8 0 0 0 37.504 20.224c0.832 0 1.728-0.32 2.56-0.384a44.736 44.736 0 0 0 22.336-7.232c6.336-4.288 155.072-107.648 155.072-357.504 0-250.24-154.752-353.536-161.408-357.76" fill="#000000" p-id="14056"></path><path d="M721.536 340.288a44.544 44.544 0 0 0-59.328 21.44 46.272 46.272 0 0 0 20.48 60.928c2.88 1.472 70.4 36.992 70.4 138.176 0 108.032-63.104 143.872-65.152 145.024a45.952 45.952 0 0 0 5.76 84.096c11.328 3.84 23.744 3.008 34.496-2.368 4.608-2.432 114.816-60.16 114.816-226.752 0-160.704-116.48-218.112-121.472-220.544M572.608 38.4a64.448 64.448 0 0 0-14.976-4.288c-14.912-2.304-36.8-0.32-60.16 20.992l-50.816 46.08-173.056 157.184H93.504A93.824 93.824 0 0 0 0 352.256v301.44c0 51.776 41.984 93.888 93.504 93.888h125.76l278.208 252.736c18.88 17.088 36.736 21.824 50.752 21.824 3.52 0 6.4-0.64 9.408-1.088 5.12-0.704 10.24-2.048 15.104-3.968 11.456-5.12 38.016-21.696 38.016-66.56V104.704c0-1.28-0.384-2.304-0.448-3.52C609.28 72 595.52 48.576 572.544 38.4" fill="#000000" p-id="14057"></path></svg>