<?xml version="1.0" standalone="no"?><!DOCTYPE svg PUBLIC "-//W3C//DTD SVG 1.1//EN" "http://www.w3.org/Graphics/SVG/1.1/DTD/svg11.dtd"><svg t="1586351890901" class="icon" viewBox="0 0 1024 1024" version="1.1" xmlns="http://www.w3.org/2000/svg" p-id="8228" xmlns:xlink="http://www.w3.org/1999/xlink" width="200" height="200"><defs><style type="text/css"></style></defs><path d="M809.856 398.4H554.112a42.88 42.88 0 0 1-42.624-43.2 42.88 42.88 0 0 1 42.624-43.2h255.744a42.88 42.88 0 0 1 42.624 43.2 42.88 42.88 0 0 1-42.624 43.2m0 172.8H639.36a42.88 42.88 0 0 1-42.624-43.2 42.88 42.88 0 0 1 42.624-43.2h170.496a42.88 42.88 0 0 1 42.624 43.2 42.88 42.88 0 0 1-42.624 43.2m0 172.8H639.36a42.88 42.88 0 0 1-42.624-43.2 42.88 42.88 0 0 1 42.624-43.2h170.496a42.88 42.88 0 0 1 42.624 43.2 42.88 42.88 0 0 1-42.624 43.2m-679.68-23.68l-2.304-6.72V638.08c0-27.968 17.792-54.784 43.264-65.216 1.344-0.64 27.648-12.16 62.976-22.912a120.96 120.96 0 0 1-16.512-60.416v-56.576c0-52.992 33.92-97.6 80.768-113.92 12.16-4.224 24.96-7.04 38.4-7.04 65.92 0.192 119.168 54.272 119.296 120.96v56.576c0 21.248-5.888 40.96-15.424 58.368 24.32 7.04 48.128 15.552 71.488 25.472 17.152 7.168 30.72 22.784 37.248 41.024 2.816 7.616 4.736 15.552 4.736 23.68l-0.128 68.288a60.864 60.864 0 0 1-60.352 56.704h-305.28a61.824 61.824 0 0 1-58.176-42.752M937.664 96H85.248C38.272 96 0.128 134.528 0 182.08v691.84c0 47.36 38.4 86.08 85.376 86.08h852.288c46.976 0 85.12-38.464 85.312-86.08V182.08A85.824 85.824 0 0 0 937.664 96" fill="#000000" p-id="8229"></path></svg>