<?xml version="1.0" standalone="no"?><!DOCTYPE svg PUBLIC "-//W3C//DTD SVG 1.1//EN" "http://www.w3.org/Graphics/SVG/1.1/DTD/svg11.dtd"><svg t="1596786940898" class="icon" viewBox="0 0 1024 1024" version="1.1" xmlns="http://www.w3.org/2000/svg" p-id="9150" xmlns:xlink="http://www.w3.org/1999/xlink" width="200" height="200"><defs><style type="text/css"></style></defs><path d="M887.466667 119.466667H136.533333c-28.16 0-51.2 23.04-51.2 51.2v682.666666c0 28.16 23.04 51.2 51.2 51.2h750.933334c28.16 0 51.2-23.04 51.2-51.2V170.666667c0-28.16-23.04-51.2-51.2-51.2z m-17.066667 716.8H153.6V187.733333h716.8v648.533334z" p-id="9151"></path><path d="M358.4 324.266667m-102.4 0a102.4 102.4 0 1 0 204.8 0 102.4 102.4 0 1 0-204.8 0Z" p-id="9152"></path><path d="M912.213333 763.733333l-143.36-340.053333c-17.066667-33.706667-63.573333-37.546667-86.186666-7.68L487.253333 631.466667c-18.346667 24.32-53.76 27.306667-75.946666 5.973333l-81.066667-86.186667c-21.333333-20.053333-55.04-18.346667-73.813333 3.413334L119.466667 753.066667c-28.586667 33.28-5.12 84.906667 38.826666 84.906666h708.693334c37.546667 0 62.293333-40.533333 45.226666-74.24z" p-id="9153"></path></svg>