<?xml version="1.0" standalone="no"?><!DOCTYPE svg PUBLIC "-//W3C//DTD SVG 1.1//EN" "http://www.w3.org/Graphics/SVG/1.1/DTD/svg11.dtd"><svg t="1586352192081" class="icon" viewBox="0 0 1024 1024" version="1.1" xmlns="http://www.w3.org/2000/svg" p-id="15248" xmlns:xlink="http://www.w3.org/1999/xlink" width="200" height="200"><defs><style type="text/css"></style></defs><path d="M767.232 70.208c152.64 88.64 255.744 253.44 255.744 442.24C1022.976 794.624 793.6 1024 511.488 1024S0 794.56 0 512.512c0-188.8 103.104-353.664 255.744-442.24A507.776 507.776 0 0 1 511.488 0.96c89.856 0 178.112 23.872 255.744 69.184zM511.488 384.64a42.624 42.624 0 0 0-42.624 42.624v340.992a42.624 42.624 0 0 0 85.248 0V427.264a42.624 42.624 0 0 0-42.624-42.624z m0-170.496a42.624 42.624 0 1 0 0 85.248 42.624 42.624 0 0 0 0-85.248z" fill="#000000" p-id="15249"></path></svg>