<?xml version="1.0" standalone="no"?><!DOCTYPE svg PUBLIC "-//W3C//DTD SVG 1.1//EN" "http://www.w3.org/Graphics/SVG/1.1/DTD/svg11.dtd"><svg t="1586351730483" class="icon" viewBox="0 0 1024 1024" version="1.1" xmlns="http://www.w3.org/2000/svg" p-id="4294" xmlns:xlink="http://www.w3.org/1999/xlink" width="200" height="200"><defs><style type="text/css"></style></defs><path d="M511.872 1022.592C229.632 1022.592 0 793.28 0 511.36S229.632 0.256 511.872 0.256s511.872 229.312 511.872 511.168-229.632 511.168-511.872 511.168z" fill="#000000" p-id="4295"></path><path d="M258.624 525.504c0 0.192 0.256 0.32 0.32 0.448a36.288 36.288 0 0 0 7.488 11.52h0.128l0.064 0.128 181.568 181.824a36.544 36.544 0 0 0 51.84-51.52L381.824 549.632h348.544a36.544 36.544 0 1 0 0-72.96H379.968l121.216-119.808a36.48 36.48 0 1 0-51.392-51.84L266.752 485.76a36.48 36.48 0 0 0-8.128 39.68z" fill="#FFFFFF" p-id="4296"></path></svg>