<?xml version="1.0" standalone="no"?><!DOCTYPE svg PUBLIC "-//W3C//DTD SVG 1.1//EN" "http://www.w3.org/Graphics/SVG/1.1/DTD/svg11.dtd"><svg t="1586778911476" class="icon" viewBox="0 0 1024 1024" version="1.1" xmlns="http://www.w3.org/2000/svg" p-id="6176" xmlns:xlink="http://www.w3.org/1999/xlink" width="200" height="200"><defs><style type="text/css"></style></defs><path d="M490.9568 883.2h-68.266667a21.333333 21.333333 0 1 0 0 42.666667h68.266667a21.333333 21.333333 0 1 0 0-42.666667zM896 200.533333a21.333333 21.333333 0 0 0-21.333333 21.333334v68.266666a21.333333 21.333333 0 1 0 42.666666 0v-68.266666a21.333333 21.333333 0 0 0-21.333333-21.333334zM337.3568 883.2h-68.266667a21.333333 21.333333 0 1 0 0 42.666667h68.266667a21.333333 21.333333 0 1 0 0-42.666667z" p-id="6177"></path><path d="M191.112533 884.5824c0.5376-3.234133 0.887467-6.536533 0.887467-9.915733V621.832533C192 388.8384 396.168533 192 637.832533 192H874.666667a59.733333 59.733333 0 1 0 0-119.466667H637.832533c-147.874133 0-288.503467 56.6272-395.9808 159.4624C132.667733 336.4608 72.533333 474.9056 72.533333 621.832533V874.666667a59.733333 59.733333 0 0 0 59.733334 59.733333 59.332267 59.332267 0 0 0 30.651733-8.533333h20.829867a21.333333 21.333333 0 0 0 21.333333-21.333334 21.265067 21.265067 0 0 0-13.969067-19.950933zM798.1568 883.2h-68.266667a21.333333 21.333333 0 1 0 0 42.666667h68.266667a21.333333 21.333333 0 1 0 0-42.666667zM644.5568 883.2h-68.266667a21.333333 21.333333 0 1 0 0 42.666667h68.266667a21.333333 21.333333 0 1 0 0-42.666667zM896 814.933333a21.333333 21.333333 0 0 0-21.333333 21.333334v48.8448a21.341867 21.341867 0 0 0 8.823466 40.7552H896a21.333333 21.333333 0 0 0 21.333333-21.333334v-68.266666a21.333333 21.333333 0 0 0-21.333333-21.333334zM896 354.133333a21.333333 21.333333 0 0 0-21.333333 21.333334v68.266666a21.333333 21.333333 0 1 0 42.666666 0v-68.266666a21.333333 21.333333 0 0 0-21.333333-21.333334zM896 507.733333a21.333333 21.333333 0 0 0-21.333333 21.333334v68.266666a21.333333 21.333333 0 1 0 42.666666 0v-68.266666a21.333333 21.333333 0 0 0-21.333333-21.333334zM896 661.333333a21.333333 21.333333 0 0 0-21.333333 21.333334v68.266666a21.333333 21.333333 0 1 0 42.666666 0v-68.266666a21.333333 21.333333 0 0 0-21.333333-21.333334z" p-id="6178"></path></svg>