<?xml version="1.0" standalone="no"?><!DOCTYPE svg PUBLIC "-//W3C//DTD SVG 1.1//EN" "http://www.w3.org/Graphics/SVG/1.1/DTD/svg11.dtd"><svg t="1586778926576" class="icon" viewBox="0 0 1024 1024" version="1.1" xmlns="http://www.w3.org/2000/svg" p-id="6578" xmlns:xlink="http://www.w3.org/1999/xlink" width="200" height="200"><defs><style type="text/css"></style></defs><path d="M883.217067 515.985067v68.266666a21.333333 21.333333 0 0 0 42.666666 0.008534v-68.2752a21.333333 21.333333 0 1 0-42.666666 0zM200.541867 110.933333a21.333333 21.333333 0 0 0 21.333333 21.333334h68.266667a21.333333 21.333333 0 1 0 0-42.666667h-68.266667a21.333333 21.333333 0 0 0-21.333333 21.333333zM883.217067 669.585067v68.2752a21.333333 21.333333 0 1 0 42.666666 0v-68.2752a21.333333 21.333333 0 1 0-42.666666 0z" p-id="6579"></path><path d="M884.590933 815.829333a60.3392 60.3392 0 0 0-9.915733-0.887466L621.841067 814.933333c-232.9856 0-429.832533-204.168533-429.832534-445.832533V132.266667a59.733333 59.733333 0 1 0-119.466666 0v236.834133c0 147.874133 56.635733 288.494933 159.4624 395.9808C336.469333 874.2656 474.914133 934.4 621.841067 934.4h252.834133a59.733333 59.733333 0 0 0 59.733333-59.733333c0-11.2128-3.1488-21.674667-8.533333-30.6432v-20.829867a21.333333 21.333333 0 0 0-21.333333-21.333333 21.2736 21.2736 0 0 0-19.950934 13.969066zM883.217067 208.776533v68.266667a21.333333 21.333333 0 1 0 42.666666 0v-68.266667a21.333333 21.333333 0 1 0-42.666666 0zM883.217067 362.376533v68.266667a21.333333 21.333333 0 1 0 42.666666 0v-68.266667a21.333333 21.333333 0 1 0-42.666666 0zM814.9504 110.933333a21.333333 21.333333 0 0 0 21.333333 21.333334h48.836267a21.333333 21.333333 0 0 0 40.763733-8.823467V110.933333a21.333333 21.333333 0 0 0-21.333333-21.333333h-68.266667a21.333333 21.333333 0 0 0-21.333333 21.333333zM354.141867 110.933333a21.333333 21.333333 0 0 0 21.333333 21.333334h68.266667a21.333333 21.333333 0 1 0 0-42.666667h-68.266667a21.333333 21.333333 0 0 0-21.333333 21.333333zM507.741867 110.933333a21.333333 21.333333 0 0 0 21.333333 21.333334h68.266667a21.333333 21.333333 0 1 0 0-42.666667h-68.266667a21.333333 21.333333 0 0 0-21.333333 21.333333zM661.3504 110.933333a21.333333 21.333333 0 0 0 21.333333 21.333334h68.266667a21.333333 21.333333 0 1 0 0-42.666667h-68.266667a21.333333 21.333333 0 0 0-21.333333 21.333333z" p-id="6580"></path></svg>