<?xml version="1.0" standalone="no"?><!DOCTYPE svg PUBLIC "-//W3C//DTD SVG 1.1//EN" "http://www.w3.org/Graphics/SVG/1.1/DTD/svg11.dtd"><svg t="1586351827662" class="icon" viewBox="0 0 1024 1024" version="1.1" xmlns="http://www.w3.org/2000/svg" p-id="6599" xmlns:xlink="http://www.w3.org/1999/xlink" width="200" height="200"><defs><style type="text/css"></style></defs><path d="M667.904 639.168l-217.92 162.56a43.008 43.008 0 0 1-60.864-9.344 43.904 43.904 0 0 1-5.44-40.256 44.608 44.608 0 0 1-3.072-15.488V471.424c0-3.776 1.216-7.104 2.112-10.624a43.328 43.328 0 0 1 66.368-47.744l217.856 154.24a44.416 44.416 0 0 1 0.896 71.872m236.096-455.04H646.848L701.376 63.36a44.544 44.544 0 0 0-21.44-58.624 43.392 43.392 0 0 0-57.792 21.76L550.912 184.064H439.872L368.64 26.624a43.456 43.456 0 0 0-57.792-21.824 44.608 44.608 0 0 0-21.44 58.624l54.528 120.64H118.784C70.784 184.32 32 223.744 32 272.512v663.04C32 984.32 70.976 1024 118.784 1024h785.088a87.68 87.68 0 0 0 86.72-88.384V272.512c0-48.768-38.848-88.448-86.72-88.448" fill="#000000" p-id="6600"></path></svg>