<?xml version="1.0" standalone="no"?><!DOCTYPE svg PUBLIC "-//W3C//DTD SVG 1.1//EN" "http://www.w3.org/Graphics/SVG/1.1/DTD/svg11.dtd"><svg t="1586351896762" class="icon" viewBox="0 0 1024 1024" version="1.1" xmlns="http://www.w3.org/2000/svg" p-id="8363" xmlns:xlink="http://www.w3.org/1999/xlink" width="200" height="200"><defs><style type="text/css"></style></defs><path d="M511.488 938.752a424.192 424.192 0 0 1-287.232-112.256c73.152-23.68 195.328-58.24 284.544-58.24 90.624 0 215.808 35.904 288.512 59.52a423.872 423.872 0 0 1-285.824 110.976zM298.368 506.24v-121.6a213.44 213.44 0 0 1 213.12-213.184 213.44 213.44 0 0 1 213.12 213.184v126.72c0 13.632-1.536 26.88-3.968 39.808l-1.28 6.08a212.16 212.16 0 0 1-30.016 70.976l-2.56 3.904a217.344 217.344 0 0 1-54.72 54.528l-2.688 1.92a212.032 212.032 0 0 1-235.968-0.064l-2.432-1.728a215.872 215.872 0 0 1-54.72-54.656l-2.752-4.032a212.096 212.096 0 0 1-29.888-70.848l-1.28-6.144a214.848 214.848 0 0 1-3.968-39.744v-5.12zM511.488 1.024C229.44 1.024 0 230.4 0 512.512S229.44 1024 511.488 1024s511.488-229.44 511.488-511.488S793.6 1.024 511.488 1.024z" fill="#000000" p-id="8364"></path></svg>