<?xml version="1.0" standalone="no"?><!DOCTYPE svg PUBLIC "-//W3C//DTD SVG 1.1//EN" "http://www.w3.org/Graphics/SVG/1.1/DTD/svg11.dtd"><svg t="1586351977269" class="icon" viewBox="0 0 1024 1024" version="1.1" xmlns="http://www.w3.org/2000/svg" p-id="10531" xmlns:xlink="http://www.w3.org/1999/xlink" width="200" height="200"><defs><style type="text/css"></style></defs><path d="M767.984001 511.968002a69.819636 69.819636 0 1 1 0-139.639273A69.819636 69.819636 0 0 1 767.984001 511.968002M512 511.968002a69.819636 69.819636 0 1 1 0-139.639273A69.819636 69.819636 0 0 1 512 511.968002M256.015999 511.968002a69.75564 69.75564 0 1 1-3.647772-139.575277A69.75564 69.75564 0 0 1 256.015999 511.968002m682.581339-511.968002H85.402662C38.365602 0 0.031998 39.9975 0.031998 89.082432v685.653147c0 49.084932 38.3976 89.018436 85.562652 89.018436H360.969439c8.575464 0 22.782576 8.31948 26.622337 15.67902l55.420536 104.633461 4.223736 6.655584c16.190988 21.11868 39.741516 33.149928 64.63596 33.213924H512c24.95844 0 48.572964-12.15924 64.827948-33.213924l59.644272-111.353041c3.51978-6.591588 17.342916-15.615024 26.686333-15.615024h275.630773c46.973064 0 85.242672-39.933504 85.242672-89.018436V89.082432C1023.968002 39.9975 985.698394 0 938.597338 0" fill="#000000" p-id="10532"></path></svg>