<?xml version="1.0" standalone="no"?><!DOCTYPE svg PUBLIC "-//W3C//DTD SVG 1.1//EN" "http://www.w3.org/Graphics/SVG/1.1/DTD/svg11.dtd"><svg t="1586393683384" class="icon" viewBox="0 0 1024 1024" version="1.1" xmlns="http://www.w3.org/2000/svg" p-id="12666" xmlns:xlink="http://www.w3.org/1999/xlink" width="200" height="200"><defs><style type="text/css"></style></defs><path d="M810.666667 128H213.333333a128 128 0 0 0-128 128v640a42.666667 42.666667 0 0 0 21.76 37.12A42.666667 42.666667 0 0 0 128 938.666667a42.666667 42.666667 0 0 0 21.76-5.973334L341.333333 816.64a42.666667 42.666667 0 0 1 23.466667-5.973333H810.666667a128 128 0 0 0 128-128V256a128 128 0 0 0-128-128zM341.333333 512a42.666667 42.666667 0 1 1 42.666667-42.666667 42.666667 42.666667 0 0 1-42.666667 42.666667z m170.666667 0a42.666667 42.666667 0 1 1 42.666667-42.666667 42.666667 42.666667 0 0 1-42.666667 42.666667z m170.666667 0a42.666667 42.666667 0 1 1 42.666666-42.666667 42.666667 42.666667 0 0 1-42.666666 42.666667z" p-id="12667"></path></svg>