<?xml version="1.0" standalone="no"?><!DOCTYPE svg PUBLIC "-//W3C//DTD SVG 1.1//EN" "http://www.w3.org/Graphics/SVG/1.1/DTD/svg11.dtd"><svg t="1586352033021" class="icon" viewBox="0 0 1024 1024" version="1.1" xmlns="http://www.w3.org/2000/svg" p-id="12151" xmlns:xlink="http://www.w3.org/1999/xlink" width="200" height="200"><defs><style type="text/css"></style></defs><path d="M645.103362 1023.872016h-28.860392c-0.191976-1.5998-1.151856-2.111736-2.687664-2.175728a75.894513 75.894513 0 0 1-20.733409-5.43932c-23.67704-8.894888-43.130609-23.35708-55.801025-45.370329-12.286464-21.373328-20.925384-44.474441-31.35608-66.743657-12.926384-27.51656-25.084864-55.481065-37.627297-83.189601-9.27884-20.47744-18.685664-40.762905-27.900512-61.112361-12.542432-27.772528-25.084864-55.545057-37.499313-83.381577-1.91976-4.223472-3.83952-4.287464-7.35908-2.111736-11.390576 7.167104-78.582177 52.025497-99.379577 69.367329a2300.768404 2300.768404 0 0 0-95.732034 88.756905c-4.927384 5.11936-21.11736 23.421072-27.388576 31.804025-0.63992 0.895888-7.871016 10.110736-9.406824 10.110736-1.471816 0-1.087864-8.126984-1.087864-9.150856V9.342832c0-2.55968 0.127984-4.095488 1.087864-5.11936 0.95988-0.895888 2.303712 0 5.375328 2.367704C243.233596 63.800025 843.926509 524.350456 876.370454 548.859393c5.695288 4.287464 19.1976 12.286464 19.1976 14.270216 0 2.047744-8.894888 1.983752-13.502312 1.983752-20.15748 0-40.314961 0.255968-60.344457 1.407824-17.213848 0.95988-34.491689 1.91976-51.641545 3.967504-13.43832 1.663792-27.1966 1.91976-40.634921 3.647544-21.501312 2.815648-43.002625 5.11936-64.439945 8.446944-31.100112 4.7994-61.816273 11.262592-92.340457 18.87764-3.83952 0.95988-3.711536 2.55968-2.047744 5.375328 12.542432 20.733408 24.95688 41.466817 37.627297 62.200225 19.389576 31.804024 38.907137 63.544057 58.23272 95.348082 18.87764 30.844144 37.499313 61.880265 56.504937 92.596425 14.270216 23.03712 19.389576 47.866017 15.038121 74.230722a110.898138 110.898138 0 0 1-90.228722 90.420697c-1.471816 0.255968-2.55968 0.63992-2.687664 2.23972z" fill="#000000" p-id="12152"></path></svg>