<?xml version="1.0" standalone="no"?><!DOCTYPE svg PUBLIC "-//W3C//DTD SVG 1.1//EN" "http://www.w3.org/Graphics/SVG/1.1/DTD/svg11.dtd"><svg t="1586351949841" class="icon" viewBox="0 0 1024 1024" version="1.1" xmlns="http://www.w3.org/2000/svg" p-id="9852" xmlns:xlink="http://www.w3.org/1999/xlink" width="200" height="200"><defs><style type="text/css"></style></defs><path d="M936.256 656v191.296c0 51.2-51.2 102.4-109.76 102.4H102.4c-51.2 0-102.4-43.84-102.4-109.696v-665.6c0-58.496 51.2-102.4 102.4-109.696h724.096c58.56 0 109.76 51.2 109.76 109.696v198.656a91.84 91.84 0 0 0-14.656-1.152H548.544c-58.496 0-102.4 36.544-109.696 95.04V554.752c0 58.496 51.2 102.4 109.696 102.4H921.6c4.992 0 9.856-0.384 14.656-1.088z m21.888-174.4v65.856c0 21.888-21.888 43.84-43.84 43.84H548.48C526.72 591.36 512 569.344 512 547.456V481.6c0-21.952 14.656-43.904 36.544-43.904h358.4c29.312 0 51.2 21.952 51.2 43.904z m-73.088-7.296c-21.952 0-43.904 14.592-43.904 43.84 0 21.952 14.592 36.608 43.904 36.608 21.888 0 36.544-14.656 36.544-36.608 0-29.248-14.656-43.84-36.544-43.84z" fill="#000000" p-id="9853"></path></svg>