<?xml version="1.0" standalone="no"?><!DOCTYPE svg PUBLIC "-//W3C//DTD SVG 1.1//EN" "http://www.w3.org/Graphics/SVG/1.1/DTD/svg11.dtd"><svg t="1586352004837" class="icon" viewBox="0 0 1024 1024" version="1.1" xmlns="http://www.w3.org/2000/svg" p-id="11341" xmlns:xlink="http://www.w3.org/1999/xlink" width="200" height="200"><defs><style type="text/css"></style></defs><path d="M88.962838 652.287552H0v109.748548c0 51.356692 39.844607 93.11998 88.898882 93.11998h378.235963v75.40416H333.722566c-24.623072 0-44.577353 20.78571-44.577353 46.368122 0 25.582412 19.954281 46.368122 44.577353 46.368122h355.915308c24.559116 0 44.513397-20.721754 44.513397-46.368122 0-25.582412-19.954281-46.368122-44.513397-46.368122H556.161639V855.092124h378.235963c49.054275 0 88.898882-41.763288 88.898882-93.11998v-109.748548H88.962838zM934.397602 31.978015H88.898882C39.844607 31.978015 0 73.805259 0 125.225907v434.261445h1023.296484v-434.261445C1023.296484 73.805259 983.451877 31.978015 934.397602 31.978015z" fill="#000000" p-id="11342"></path></svg>