<?xml version="1.0" standalone="no"?><!DOCTYPE svg PUBLIC "-//W3C//DTD SVG 1.1//EN" "http://www.w3.org/Graphics/SVG/1.1/DTD/svg11.dtd"><svg t="1586352013545" class="icon" viewBox="0 0 1024 1024" version="1.1" xmlns="http://www.w3.org/2000/svg" p-id="11611" xmlns:xlink="http://www.w3.org/1999/xlink" width="200" height="200"><defs><style type="text/css"></style></defs><path d="M670.143407 1023.99616a311.038834 311.038834 0 0 1-221.43917-91.711656l-357.11866-357.118661a313.534824 313.534824 0 0 1 0-442.878339L209.153136 14.719945a47.99982 47.99982 0 0 1 67.839745 0l213.5032 213.567199a47.99982 47.99982 0 0 1 0 67.839746L402.432411 384.254559 639.615521 621.43767l88.12767-88.06367a47.99982 47.99982 0 0 1 67.839746 0l213.567199 213.503199a47.99982 47.99982 0 0 1 0 67.839746l-117.567559 117.567559A311.102833 311.102833 0 0 1 670.143407 1023.99616z" fill="#000000" p-id="11612"></path></svg>