<?xml version="1.0" standalone="no"?><!DOCTYPE svg PUBLIC "-//W3C//DTD SVG 1.1//EN" "http://www.w3.org/Graphics/SVG/1.1/DTD/svg11.dtd"><svg t="1586351931484" class="icon" viewBox="0 0 1024 1024" version="1.1" xmlns="http://www.w3.org/2000/svg" p-id="9310" xmlns:xlink="http://www.w3.org/1999/xlink" width="200" height="200"><defs><style type="text/css"></style></defs><path d="M460.288 1022.592H31.936c-6.4 0-19.2-6.4-25.6-12.8C0 1003.456 0 997.12 0 990.72L89.472 33.088c6.4-19.2 19.2-31.936 32-31.936h351.616c6.4 0 19.2 6.4 25.6 6.4 6.4 6.4 6.4 12.8 6.4 25.536l-12.8 957.568c0 19.2-12.8 32-32 32z m460.288-708.608H588.16c-19.2 0-32-12.8-32-31.936l-6.4-248.96c0-6.4 0-19.2 6.4-25.6 6.4 0 12.8-6.336 25.6-6.336h319.616c19.2 0 32 12.8 32 31.936l19.2 248.96c0 6.4 0 19.2-6.4 25.536-6.4 6.4-19.2 6.4-25.6 6.4z m70.336 708.608H594.56c-19.2 0-32-12.8-32-31.936l-6.4-612.864c0-6.4 6.4-19.136 6.4-25.536 6.4-6.4 12.8-6.4 25.6-6.4h345.216c19.2 0 31.936 12.8 31.936 25.6l57.536 612.864c0 6.4 0 19.136-6.4 25.536-6.4 6.4-19.2 12.8-25.6 12.8z" fill="#000000" p-id="9311"></path></svg>