<?xml version="1.0" standalone="no"?><!DOCTYPE svg PUBLIC "-//W3C//DTD SVG 1.1//EN" "http://www.w3.org/Graphics/SVG/1.1/DTD/svg11.dtd"><svg t="1586352037747" class="icon" viewBox="0 0 1024 1024" version="1.1" xmlns="http://www.w3.org/2000/svg" p-id="12288" xmlns:xlink="http://www.w3.org/1999/xlink" width="200" height="200"><defs><style type="text/css"></style></defs><path d="M372.48 0H92.928A93.12 93.12 0 0 0 0 92.928V372.48c0.064 51.328 41.6 92.928 92.928 92.992H372.48A93.12 93.12 0 0 0 465.472 372.48V92.928A93.12 93.12 0 0 0 372.48 0m0 558.528H92.928A93.12 93.12 0 0 0 0 651.52v279.552c0.064 51.264 41.6 92.8 92.928 92.928H372.48a93.12 93.12 0 0 0 92.992-92.928V651.52A93.12 93.12 0 0 0 372.48 558.528M931.072 0H651.52a93.12 93.12 0 0 0-92.992 92.928V372.48c0.064 51.328 41.664 92.928 92.992 92.992h279.552A93.12 93.12 0 0 0 1024 372.48V92.928A93.12 93.12 0 0 0 931.072 0m-139.776 651.648a46.528 46.528 0 0 0-46.592 46.528v279.296a46.528 46.528 0 0 0 93.12 0v-279.296a46.528 46.528 0 0 0-46.528-46.528m-186.24 0a46.528 46.528 0 0 0-46.528 46.528v279.296a46.528 46.528 0 0 0 93.12 0v-279.296a46.528 46.528 0 0 0-46.528-46.528m372.352-93.12a46.528 46.528 0 0 0-46.592 46.592v372.352a46.528 46.528 0 0 0 93.12 0V605.12a46.528 46.528 0 0 0-46.528-46.592" fill="#000000" p-id="12289"></path></svg>