<?xml version="1.0" standalone="no"?><!DOCTYPE svg PUBLIC "-//W3C//DTD SVG 1.1//EN" "http://www.w3.org/Graphics/SVG/1.1/DTD/svg11.dtd"><svg t="1586351954297" class="icon" viewBox="0 0 1024 1024" version="1.1" xmlns="http://www.w3.org/2000/svg" p-id="9987" xmlns:xlink="http://www.w3.org/1999/xlink" width="200" height="200"><defs><style type="text/css"></style></defs><path d="M554.112 605.312v20.672a42.624 42.624 0 0 1-85.248 0v-49.536c0-19.84 13.76-35.648 32-40.512 95.936-40.064 96-99.456 95.872-102.016V368.384c0-38.016-38.272-69.056-85.248-69.056-46.976 0-85.248 31.04-85.248 69.056v20.736a42.624 42.624 0 1 1-85.248 0v-20.736c0-85.056 76.48-154.304 170.496-154.304s170.496 69.248 170.496 154.304v63.36c0.192 1.728 6.208 107.584-127.872 173.568m-42.624 205.568a42.624 42.624 0 1 1 0-85.248 42.624 42.624 0 0 1 0 85.248m0-809.856C229.44 1.024 0 230.4 0 512.512S229.44 1024 511.488 1024s511.488-229.44 511.488-511.488S793.6 1.024 511.488 1.024" fill="#000000" p-id="9988"></path></svg>