<?xml version="1.0" standalone="no"?><!DOCTYPE svg PUBLIC "-//W3C//DTD SVG 1.1//EN" "http://www.w3.org/Graphics/SVG/1.1/DTD/svg11.dtd"><svg t="1586778920777" class="icon" viewBox="0 0 1024 1024" version="1.1" xmlns="http://www.w3.org/2000/svg" p-id="6444" xmlns:xlink="http://www.w3.org/1999/xlink" width="200" height="200"><defs><style type="text/css"></style></defs><path d="M515.968 123.733333h68.266667a21.333333 21.333333 0 1 0 0-42.666666h-68.266667a21.333333 21.333333 0 1 0 0 42.666666zM110.9248 806.4a21.333333 21.333333 0 0 0 21.333333-21.333333v-68.266667a21.333333 21.333333 0 1 0-42.666666 0v68.266667a21.333333 21.333333 0 0 0 21.333333 21.333333zM669.576533 123.733333h68.266667a21.333333 21.333333 0 1 0 0-42.666666h-68.266667a21.333333 21.333333 0 1 0 0 42.666666z" p-id="6445"></path><path d="M815.8208 122.350933A60.3392 60.3392 0 0 0 814.933333 132.266667v252.834133C814.933333 618.0864 610.7648 814.933333 369.1008 814.933333H132.258133a59.733333 59.733333 0 1 0 0 119.466667h236.834134c147.874133 0 288.503467-56.635733 395.9808-159.4624 109.184-104.465067 169.3184-242.909867 169.3184-389.8368V132.266667a59.733333 59.733333 0 0 0-59.733334-59.733334 59.357867 59.357867 0 0 0-30.651733 8.533334h-20.829867a21.333333 21.333333 0 0 0-21.333333 21.333333 21.248 21.248 0 0 0 13.9776 19.950933zM208.768 123.733333h68.266667a21.333333 21.333333 0 1 0 0-42.666666h-68.266667a21.333333 21.333333 0 1 0 0 42.666666zM362.368 123.733333h68.266667a21.333333 21.333333 0 1 0 0-42.666666h-68.266667a21.333333 21.333333 0 1 0 0 42.666666zM110.9248 192a21.333333 21.333333 0 0 0 21.333333-21.333333v-48.8448A21.341867 21.341867 0 0 0 123.434667 81.066667h-12.509867a21.333333 21.333333 0 0 0-21.333333 21.333333v68.266667a21.333333 21.333333 0 0 0 21.333333 21.333333zM110.9248 652.8a21.333333 21.333333 0 0 0 21.333333-21.333333v-68.266667a21.333333 21.333333 0 1 0-42.666666 0v68.266667a21.333333 21.333333 0 0 0 21.333333 21.333333zM110.9248 499.2a21.333333 21.333333 0 0 0 21.333333-21.333333v-68.266667a21.333333 21.333333 0 1 0-42.666666 0v68.266667a21.333333 21.333333 0 0 0 21.333333 21.333333zM110.9248 345.6a21.333333 21.333333 0 0 0 21.333333-21.333333v-68.266667a21.333333 21.333333 0 1 0-42.666666 0v68.266667a21.333333 21.333333 0 0 0 21.333333 21.333333z" p-id="6446"></path></svg>