<?xml version="1.0" standalone="no"?><!DOCTYPE svg PUBLIC "-//W3C//DTD SVG 1.1//EN" "http://www.w3.org/Graphics/SVG/1.1/DTD/svg11.dtd"><svg t="1586778916584" class="icon" viewBox="0 0 1024 1024" version="1.1" xmlns="http://www.w3.org/2000/svg" p-id="6310" xmlns:xlink="http://www.w3.org/1999/xlink" width="200" height="200"><defs><style type="text/css"></style></defs><path d="M123.733333 490.9568v-68.266667a21.333333 21.333333 0 1 0-42.666666 0v68.266667a21.333333 21.333333 0 1 0 42.666666 0zM806.4 896a21.333333 21.333333 0 0 0-21.333333-21.333333h-68.266667a21.333333 21.333333 0 1 0 0 42.666666h68.266667a21.333333 21.333333 0 0 0 21.333333-21.333333zM123.733333 337.3568v-68.266667a21.333333 21.333333 0 1 0-42.666666 0v68.266667a21.333333 21.333333 0 1 0 42.666666 0z" p-id="6311"></path><path d="M122.350933 191.112533c3.234133 0.5376 6.536533 0.887467 9.915734 0.887467h252.834133C618.094933 192 814.933333 396.168533 814.933333 637.832533V874.666667a59.733333 59.733333 0 1 0 119.466667 0V637.832533c0-147.874133-56.635733-288.503467-159.4624-395.9808C670.472533 132.667733 532.036267 72.533333 385.1008 72.533333H132.266667a59.733333 59.733333 0 0 0-59.733334 59.733334c0 11.221333 3.1488 21.6832 8.533334 30.651733v20.829867a21.333333 21.333333 0 0 0 21.333333 21.333333 21.265067 21.265067 0 0 0 19.950933-13.969067zM123.733333 798.1568v-68.266667a21.333333 21.333333 0 1 0-42.666666 0v68.266667a21.333333 21.333333 0 1 0 42.666666 0zM123.733333 644.5568v-68.266667a21.333333 21.333333 0 1 0-42.666666 0v68.266667a21.333333 21.333333 0 1 0 42.666666 0zM192 896a21.333333 21.333333 0 0 0-21.333333-21.333333h-48.8448a21.341867 21.341867 0 0 0-40.7552 8.823466V896a21.333333 21.333333 0 0 0 21.333333 21.333333h68.266667a21.333333 21.333333 0 0 0 21.333333-21.333333zM652.8 896a21.333333 21.333333 0 0 0-21.333333-21.333333h-68.266667a21.333333 21.333333 0 1 0 0 42.666666h68.266667a21.333333 21.333333 0 0 0 21.333333-21.333333zM499.2 896a21.333333 21.333333 0 0 0-21.333333-21.333333h-68.266667a21.333333 21.333333 0 1 0 0 42.666666h68.266667a21.333333 21.333333 0 0 0 21.333333-21.333333zM345.6 896a21.333333 21.333333 0 0 0-21.333333-21.333333h-68.266667a21.333333 21.333333 0 1 0 0 42.666666h68.266667a21.333333 21.333333 0 0 0 21.333333-21.333333z" p-id="6312"></path></svg>