<?xml version="1.0" standalone="no"?><!DOCTYPE svg PUBLIC "-//W3C//DTD SVG 1.1//EN" "http://www.w3.org/Graphics/SVG/1.1/DTD/svg11.dtd"><svg t="1586351991603" class="icon" viewBox="0 0 1024 1024" version="1.1" xmlns="http://www.w3.org/2000/svg" p-id="10936" xmlns:xlink="http://www.w3.org/1999/xlink" width="200" height="200"><defs><style type="text/css"></style></defs><path d="M183.232 485.376H528v452.352c100.032 0 344.704-191.296 344.704-358.4V485.376H528l-0.064-380.224c-30.4 19.2-86.592 51.52-160.384 81.216a708.224 708.224 0 0 1-184.32 45.056v253.952zM527.936 1024C376.96 1024 96 795.52 96 579.392V148.928l42.944-0.704c0.896 0 96.768-2.048 195.712-41.728C436.16 65.728 501.568 18.944 502.208 18.496l25.6-18.496 25.92 18.496c0.64 0.448 66.048 47.232 167.488 88a619.648 619.648 0 0 0 195.84 41.728l42.752 0.64L960 579.456C960 795.456 679.104 1024 528 1024z" fill="#000000" p-id="10937"></path></svg>