<?xml version="1.0" standalone="no"?><!DOCTYPE svg PUBLIC "-//W3C//DTD SVG 1.1//EN" "http://www.w3.org/Graphics/SVG/1.1/DTD/svg11.dtd"><svg t="1586352021328" class="icon" viewBox="0 0 1024 1024" version="1.1" xmlns="http://www.w3.org/2000/svg" p-id="11881" xmlns:xlink="http://www.w3.org/1999/xlink" width="200" height="200"><defs><style type="text/css"></style></defs><path d="M560.959649 1014.144006V502.912326l447.231721-235.967853a135.039916 135.039916 0 0 0-9.919994-15.80799s-8.959994-11.199993-11.903992-13.439992c-17.919989-14.207991-30.719981-21.759986-50.623969-32.767979l-103.551935 53.503966v0.128L654.079591 350.464421 511.99968 423.936375h-0.192L361.215774 346.880423l-278.399826-142.527911 31.167981-17.279989 140.799912-76.671952L409.727744 25.408624A213.567867 213.567867 0 0 1 511.80768 0.00064a211.839868 211.839868 0 0 1 100.543937 25.343984l152.767905 84.927947 146.751908 81.151949 10.431994 6.015997c28.287982 15.61599 42.495973 23.039986 64.06396 40.191974 3.007998 2.239999 11.903993 13.439992 11.903992 13.439992 15.67999 21.567987 25.343984 48.38397 25.343984 77.439952v357.631776c0 50.623968-29.055982 94.591941-72.319955 118.399926l-40.191974 21.631987-326.271797 177.279889c-7.615995 4.223997-15.55199 7.743995-23.871985 10.623993z m-98.303938 0.128a149.119907 149.119907 0 0 1-23.103986-9.983994l-324.799797-176.575889-43.263973-23.039986C29.055982 780.800152 0 736.832179 0 686.912211V329.344434c0-21.695986 5.823996-41.919974 15.55199-59.903962l77.951952 41.087974 0.383999 0.192 37.247977 19.391988 96.83194 51.391968-0.768 131.839917c0 8.959994 5.247997 17.151989 12.671992 21.631987l58.879963 31.29598a14.015991 14.015991 0 0 0 20.863987-12.671992V427.648373l29.183982 15.10399v-0.32l113.855929 59.007964v512.831679z" fill="#000000" p-id="11882"></path></svg>