<?xml version="1.0" standalone="no"?><!DOCTYPE svg PUBLIC "-//W3C//DTD SVG 1.1//EN" "http://www.w3.org/Graphics/SVG/1.1/DTD/svg11.dtd"><svg t="1590629267570" class="icon" viewBox="0 0 1024 1024" version="1.1" xmlns="http://www.w3.org/2000/svg" p-id="7840" xmlns:xlink="http://www.w3.org/1999/xlink" width="200" height="200"><defs><style type="text/css"></style></defs><path d="M512 512m-64 0a64 64 0 1 0 128 0 64 64 0 1 0-128 0Z" p-id="7841"></path><path d="M866.986667 399.786667h-46.506667c-5.973333 0-10.24-4.693333-12.8-11.093334a14.506667 14.506667 0 0 1 0-15.786666l34.56-31.573334a69.546667 69.546667 0 0 0 21.333333-50.346666 71.253333 71.253333 0 0 0-21.333333-50.773334L785.066667 181.76a71.253333 71.253333 0 0 0-101.12 0l-32.853334 31.573333a16.213333 16.213333 0 0 1-17.493333 0 14.506667 14.506667 0 0 1-9.386667-12.373333V157.013333A71.68 71.68 0 0 0 554.666667 85.333333h-82.773334a72.106667 72.106667 0 0 0-72.106666 71.68v46.506667c0 5.973333-4.693333 10.24-11.093334 12.8a14.506667 14.506667 0 0 1-15.786666 0L341.333333 181.76a73.386667 73.386667 0 0 0-50.773333-21.333333 70.4 70.4 0 0 0-50.346667 21.333333L181.76 238.933333a71.253333 71.253333 0 0 0 0 102.4l31.573333 31.573334a16.213333 16.213333 0 0 1 0 17.493333 14.506667 14.506667 0 0 1-12.373333 9.386667H157.013333A71.68 71.68 0 0 0 85.333333 471.466667v80.64a72.106667 72.106667 0 0 0 71.68 72.106666h46.506667c5.973333 0 10.24 4.693333 12.8 11.093334a14.506667 14.506667 0 0 1 0 15.786666l-34.56 31.573334a73.386667 73.386667 0 0 0-21.333333 50.773333 70.826667 70.826667 0 0 0 21.333333 50.773333l57.173333 58.026667a71.253333 71.253333 0 0 0 101.12 0l32.853334-31.573333a16.213333 16.213333 0 0 1 17.493333 0 14.506667 14.506667 0 0 1 9.386667 12.373333v46.506667A71.68 71.68 0 0 0 471.466667 938.666667h80.64a72.106667 72.106667 0 0 0 72.106666-71.68v-46.506667c0-5.973333 4.693333-10.24 11.093334-12.8a14.506667 14.506667 0 0 1 15.786666 0l32.426667 32.853333a73.386667 73.386667 0 0 0 50.773333 21.333334 70.4 70.4 0 0 0 50.346667-21.333334l57.173333-57.173333a71.253333 71.253333 0 0 0 0-101.12l-31.146666-31.146667a14.506667 14.506667 0 0 1 0-15.786666 14.506667 14.506667 0 0 1 12.373333-9.386667h46.506667A71.68 71.68 0 0 0 938.666667 554.666667v-82.773334a72.106667 72.106667 0 0 0-71.68-72.106666zM512 661.333333a149.333333 149.333333 0 1 1 149.333333-149.333333 149.333333 149.333333 0 0 1-149.333333 149.333333z" p-id="7842"></path></svg>