<?xml version="1.0" standalone="no"?><!DOCTYPE svg PUBLIC "-//W3C//DTD SVG 1.1//EN" "http://www.w3.org/Graphics/SVG/1.1/DTD/svg11.dtd"><svg t="1586352183169" class="icon" viewBox="0 0 1040 1024" version="1.1" xmlns="http://www.w3.org/2000/svg" p-id="14987" xmlns:xlink="http://www.w3.org/1999/xlink" width="203.125" height="200"><defs><style type="text/css"></style></defs><path d="M288.30528 999.04a65.088 65.088 0 0 1-65.472-64.768c0-35.84 29.376-64.768 65.472-64.768 36.096 0 65.472 28.928 65.472 64.768s-29.376 64.768-65.472 64.768z m593.856 0a65.088 65.088 0 0 1-65.536-64.768c0-35.84 29.44-64.768 65.536-64.768 36.096 0 65.472 28.928 65.472 64.768s-29.376 64.768-65.472 64.768zM188.72128 113.536H956.59328c51.84 0 89.984 43.392 82.56 94.336l-60.224 415.744c-6.72 46.528-49.28 82.816-96.896 82.816h-613.12l3.712 27.584c0.896 6.72 8.768 13.568 15.488 13.568h649.664c8.064 0 11.52 0.32 16.832 2.688a32.512 32.512 0 0 1 7.68 4.864c7.552 6.272 10.752 15.36 10.048 24.448v13.312c0.128 11.136-2.368 20.224-8.896 26.752a30.016 30.016 0 0 1-22.592 8.704H288.11328a98.56 98.56 0 0 1-96.256-83.584L106.03328 110.336c-0.96-6.912-8.64-13.568-15.68-13.568H32.04928a28.864 28.864 0 0 1-12.16-1.6 31.616 31.616 0 0 1-19.776-30.784V45.824A26.624 26.624 0 0 1 9.58528 23.296 30.72 30.72 0 0 1 31.79328 16h58.56c47.808 0 90.112 36.48 96.448 83.584l1.92 13.952z m10.88 80.64l58.368 431.424h118.4v80.832h-38.592a40.576 40.576 0 0 1-40.704-40.384c0-22.4 18.304-40.384 40.704-40.384h544.256c7.168 0 15.296-6.848 16.256-13.568l60.224-415.744c0.32-2.176 0.448-2.048-1.92-2.048H263.47328a41.6 41.6 0 0 1-2.88-0.064h-61.056z" fill="#000000" p-id="14988"></path><path d="M158.51328 162.24l72.512 495.36h689.28l79.232-495.36z" fill="#000000" p-id="14989"></path></svg>