<?xml version="1.0" standalone="no"?><!DOCTYPE svg PUBLIC "-//W3C//DTD SVG 1.1//EN" "http://www.w3.org/Graphics/SVG/1.1/DTD/svg11.dtd"><svg t="1586351762994" class="icon" viewBox="0 0 1024 1024" version="1.1" xmlns="http://www.w3.org/2000/svg" p-id="4973" xmlns:xlink="http://www.w3.org/1999/xlink" width="200" height="200"><defs><style type="text/css"></style></defs><path d="M847.424 265.6L600.512 512.64l98.112-0.192a46.528 46.528 0 0 1 0 93.056H511.616a92.864 92.864 0 0 1-92.736-92.672V325.76A46.528 46.528 0 0 1 512 325.76v143.616l269.632-269.632a46.528 46.528 0 1 1 65.792 65.856z m-568.128 572.608v92.8h-186.24v-186.24h186.24v93.44zM931.392 0H92.672A92.8 92.8 0 0 0 0 92.736v838.656C0 982.4 41.6 1024 92.672 1024h838.72A92.8 92.8 0 0 0 1024 931.264V92.8c0-51.2-41.472-92.608-92.608-92.736z" fill="#000000" p-id="4974"></path></svg>