<?xml version="1.0" standalone="no"?><!DOCTYPE svg PUBLIC "-//W3C//DTD SVG 1.1//EN" "http://www.w3.org/Graphics/SVG/1.1/DTD/svg11.dtd"><svg t="1586352122030" class="icon" viewBox="0 0 1024 1024" version="1.1" xmlns="http://www.w3.org/2000/svg" p-id="14191" xmlns:xlink="http://www.w3.org/1999/xlink" width="200" height="200"><defs><style type="text/css"></style></defs><path d="M935.769458 564.092827c21.24788-20.479885 28.863838-45.759743 20.991882-69.503609-7.871956-23.615867-29.183836-39.615777-58.367671-43.775754l-204.158852-29.439834c-9.791945-1.407992-25.983854-13.119926-30.335829-21.887877L572.635501 216.126784c-13.119926-26.367852-35.199802-41.407767-60.54366-41.407767-25.407857 0-47.359734 15.039915-60.543659 41.407767L360.284695 399.485753c-4.415975 8.83195-20.543884 20.479885-30.399829 21.887877l-204.030852 29.439834c-29.375835 4.223976-50.687715 20.223886-58.495671 43.839754-7.871956 23.743866-0.191999 49.087724 20.991882 69.439609l147.711169 142.719197c7.10396 6.911961 13.375925 26.047853 11.711934 35.839799l-34.879804 201.470866c-4.031977 22.975871 0.895995 43.839753 13.823923 58.879669a60.735658 60.735658 0 0 0 46.847736 20.991882c12.223931 0 24.83186-3.199982 37.37579-9.791945l182.526973-95.167465c6.463964-3.391981 30.719827-3.391981 37.247791 0l182.590973 95.167465c31.295824 16.319908 64.831635 11.263937 84.095527-11.199937 12.927927-15.039915 17.7919-35.903798 13.823922-58.879669l-34.815804-201.342867c-1.663991-9.919944 4.479975-29.055837 11.711934-35.967798l147.647169-142.719197zM218.781491 336.126109c24.95986 0 45.247745-19.903888 45.247746-44.47975V57.023679a44.863748 44.863748 0 0 0-45.247746-44.543749 44.863748 44.863748 0 0 0-45.247745 44.543749v234.62268c0 24.575862 20.287886 44.47975 45.247745 44.47975z m180.990982-133.503249c24.95986 0 45.247745-19.903888 45.247746-44.47975V56.95968A44.863748 44.863748 0 0 0 399.708474 12.47993a44.863748 44.863748 0 0 0-45.247746 44.543749v101.119431c0 24.575862 20.223886 44.47975 45.247746 44.47975z m226.174728 0c24.95986 0 45.247745-19.903888 45.247746-44.47975V56.95968a44.863748 44.863748 0 0 0-45.247746-44.54375 44.863748 44.863748 0 0 0-45.247745 44.54375v101.119431c0 24.575862 20.287886 44.47975 45.247745 44.47975z m180.990982 121.407317c24.95986 0 45.247745-19.903888 45.247745-44.479749V44.991747a44.863748 44.863748 0 0 0-45.247745-44.47975 44.863748 44.863748 0 0 0-45.247746 44.47975v234.558681c0 24.575862 20.287886 44.47975 45.247746 44.479749z" fill="#000000" p-id="14192"></path></svg>