<?xml version="1.0" standalone="no"?><!DOCTYPE svg PUBLIC "-//W3C//DTD SVG 1.1//EN" "http://www.w3.org/Graphics/SVG/1.1/DTD/svg11.dtd"><svg t="1586351873633" class="icon" viewBox="0 0 1024 1024" version="1.1" xmlns="http://www.w3.org/2000/svg" p-id="7819" xmlns:xlink="http://www.w3.org/1999/xlink" width="200" height="200"><defs><style type="text/css"></style></defs><path d="M1022.848 703.36c0-108.48-108.672-204.224-255.744-217.024v-51.072c6.4-31.936-19.2-57.472-63.872-57.472H287.68c-38.4 0-63.936 25.6-63.936 63.872V473.6C127.872 454.4 57.6 396.992 57.6 326.72c0-63.808 70.336-127.68 166.208-146.816v25.6c0 38.272 25.6 63.808 63.936 63.808h415.552c38.336 0 63.872-25.6 63.872-63.872V65.024c6.4-38.336-19.2-63.872-63.872-63.872H287.68c-38.4 0-63.936 25.536-63.936 63.872v51.072C95.872 135.232 0 224.576 0 326.72c0 102.144 95.872 191.552 223.744 210.688v44.672c0 38.336 25.6 63.872 63.936 63.872h415.552c38.336 0 63.872-25.6 63.872-63.872v-31.872c108.736 12.736 198.208 82.944 198.208 153.216 0 70.208-89.472 140.416-198.208 153.216v-38.336c6.4-38.272-19.2-63.808-63.872-63.808H287.68c-38.4 0-63.936 25.536-63.936 63.808v140.48c0 38.272 25.6 63.808 63.936 63.808h415.552c38.336 0 63.872-25.536 63.872-63.808v-38.336c140.672-12.8 255.744-108.544 255.744-217.024zM287.68 205.44h415.552V65.024H287.68V205.44z m0 370.304h415.552V435.2H287.68v140.48z m0 383.04h415.552v-140.48H287.68v140.48z" fill="#000000" p-id="7820"></path></svg>