<?xml version="1.0" standalone="no"?><!DOCTYPE svg PUBLIC "-//W3C//DTD SVG 1.1//EN" "http://www.w3.org/Graphics/SVG/1.1/DTD/svg11.dtd"><svg t="1586351922081" class="icon" viewBox="0 0 1024 1024" version="1.1" xmlns="http://www.w3.org/2000/svg" p-id="9040" xmlns:xlink="http://www.w3.org/1999/xlink" width="200" height="200"><defs><style type="text/css"></style></defs><path d="M945.536 181.76H78.464L0 411.904v6.912a128.32 128.32 0 0 0 127.936 122.24 128.448 128.448 0 0 0 127.936-128.576c0 70.912 57.408 128.64 127.936 128.64a128.96 128.96 0 0 0 128.448-128.64c0 70.912 57.472 128.64 128 128.64 71.04 0 127.872-57.728 127.872-128.64 0 70.912 57.408 128.64 128 128.64A128.448 128.448 0 0 0 1024 412.48L945.536 181.76zM165.44 141.632h693.696c26.112 0 47.168-17.152 47.168-38.848 0-21.76-21.056-38.848-47.168-38.848H165.44c-26.112 0-47.168 17.152-47.168 38.848 0 21.12 21.056 38.848 47.168 38.848z m602.688 405.76a186.624 186.624 0 0 1-127.936 50.816 183.04 183.04 0 0 1-127.936-50.816 186.624 186.624 0 0 1-127.872 50.816 183.04 183.04 0 0 1-128-50.816 186.624 186.624 0 0 1-127.872 50.816h-9.664v284.032c0 47.36 42.624 77.696 79.04 77.696h630.528c47.744 0 79.04-35.456 79.04-77.696V597.696h-9.664a185.6 185.6 0 0 1-129.664-50.24z" fill="#000000" p-id="9041"></path></svg>