<?xml version="1.0" standalone="no"?><!DOCTYPE svg PUBLIC "-//W3C//DTD SVG 1.1//EN" "http://www.w3.org/Graphics/SVG/1.1/DTD/svg11.dtd"><svg t="1586351856865" class="icon" viewBox="0 0 1024 1024" version="1.1" xmlns="http://www.w3.org/2000/svg" p-id="7414" xmlns:xlink="http://www.w3.org/1999/xlink" width="200" height="200"><defs><style type="text/css"></style></defs><path d="M750.528 437.824h164.096V337.6h-164.096v100.224z m0 130.816h164.096V466.368h-164.096v102.272z m0-259.712h164.096V208.704h-164.096v100.224z m0 511.104h164.096v-102.272h-164.096v102.272z m240-713.472H596.736c-4.096 0-8.192 0-12.288 2.048V0.32L0 116.8v791.168l582.4 114.432v-104.192a26.112 26.112 0 0 0 12.352 2.048h393.664c20.544 0 34.944-16.384 34.944-36.736V143.296a33.536 33.536 0 0 0-32.896-36.736zM393.728 680.96l-69.76-4.096-53.248-132.864-57.408 124.672-65.6-4.096 84.096-151.296-75.84-165.632 65.6-4.096 45.056 124.672h8.192l49.216-132.864 69.76-4.096-88.32 175.744 88.32 173.952z m586.432 194.176H582.4v-55.168h133.312v-102.272H582.4v-22.528h133.312V595.008H582.4v-26.624h133.312V466.112H582.4v-28.672h133.312V337.216H582.4v-26.624h133.312V210.368H582.4v-57.216h397.824v722.048z m-229.76-179.84h164.16V595.136h-164.096v100.224z" fill="#000000" p-id="7415"></path></svg>