<?xml version="1.0" standalone="no"?><!DOCTYPE svg PUBLIC "-//W3C//DTD SVG 1.1//EN" "http://www.w3.org/Graphics/SVG/1.1/DTD/svg11.dtd"><svg t="1586351936994" class="icon" viewBox="0 0 1024 1024" version="1.1" xmlns="http://www.w3.org/2000/svg" p-id="9445" xmlns:xlink="http://www.w3.org/1999/xlink" width="200" height="200"><defs><style type="text/css"></style></defs><path d="M716.992 459.584l-233.92 255.744a42.496 42.496 0 0 1-31.488 13.888h-0.256a42.624 42.624 0 0 1-31.488-14.272L305.6 587.072a42.624 42.624 0 0 1 63.616-56.768l82.752 92.736 202.112-220.992a42.624 42.624 0 1 1 62.912 57.6M511.552 0.896C229.376 0.96 0 230.528 0 512.512 0 794.56 229.376 1024 511.488 1024c281.984 0 511.488-229.44 511.488-511.488 0-281.984-229.504-511.488-511.488-511.488" fill="#000000" p-id="9446"></path></svg>