<?xml version="1.0" standalone="no"?><!DOCTYPE svg PUBLIC "-//W3C//DTD SVG 1.1//EN" "http://www.w3.org/Graphics/SVG/1.1/DTD/svg11.dtd"><svg t="1586351881300" class="icon" viewBox="0 0 1024 1024" version="1.1" xmlns="http://www.w3.org/2000/svg" p-id="7956" xmlns:xlink="http://www.w3.org/1999/xlink" width="200" height="200"><defs><style type="text/css"></style></defs><path d="M513.792 324.096a155.84 155.84 0 0 1 311.552 0 155.84 155.84 0 0 1-311.552 0m503.04-228.224c0-48.896-39.808-88.64-87.104-88.64h-0.064c-1.536 0-155.328-5.696-271.36-5.696-133.76 0-145.792 6.4-160.256 20.864L25.984 493.696a88.96 88.96 0 0 0 0.192 125.888l377.28 376.576c16.896 16.896 39.296 26.112 63.168 26.112s46.144-9.216 62.848-25.856l472.064-471.296c15.616-15.552 30.272-30.208 15.296-429.248" fill="#000000" p-id="7957"></path></svg>