<?xml version="1.0" standalone="no"?><!DOCTYPE svg PUBLIC "-//W3C//DTD SVG 1.1//EN" "http://www.w3.org/Graphics/SVG/1.1/DTD/svg11.dtd"><svg t="1586351809383" class="icon" viewBox="0 0 1024 1024" version="1.1" xmlns="http://www.w3.org/2000/svg" p-id="6190" xmlns:xlink="http://www.w3.org/1999/xlink" width="200" height="200"><defs><style type="text/css"></style></defs><path d="M1023.486081 284.033387a2542.971232 2542.971232 0 0 0-0.383999-30.655942 419.327214 419.327214 0 0 0-5.823989-66.879875 230.335568 230.335568 0 0 0-20.479962-63.67988 227.199574 227.199574 0 0 0-40.767924-54.975897 224.12758 224.12758 0 0 0-55.039896-40.703924 233.087563 233.087563 0 0 0-63.743881-20.479961 418.111216 418.111216 0 0 0-67.007874-5.75999 3607.993235 3607.993235 0 0 0-68.351872-0.639998H321.791397a4026.48845 4026.48845 0 0 0-68.287872 0.639998c-23.039957 0.383999-46.271913 1.919996-67.007875 5.75999a231.807565 231.807565 0 0 0-63.80788 20.479961 225.727577 225.727577 0 0 0-55.039897 40.703924c-15.74397 16.06397-30.143943 34.111936-40.767923 54.975897a230.911567 230.911567 0 0 0-20.479962 63.74388A400.25525 400.25525 0 0 0 0.639999 253.441445c-0.192 7.679986-0.256 14.335973-0.447999 30.591942L0 321.665317v379.583288a4258.872015 4258.872015 0 0 0 0.639999 68.223872c0.447999 22.911957 1.919996 46.143913 5.759989 66.879875 4.287992 22.591958 10.047981 43.135919 20.543961 63.67988 10.55998 20.799961 25.023953 38.847927 40.767924 54.911897 15.99997 15.74397 34.175936 30.207943 55.039897 40.767924 20.479962 10.367981 41.087923 16.19197 63.74388 20.479962 20.735961 3.839993 43.967918 5.31199 67.007875 5.759989 7.679986 0.128 14.335973 0.256 30.719942 0.383999 15.487971 0.192 28.159947 0.256 37.56793 0.256h380.159287a4083.640343 4083.640343 0 0 0 68.287872-0.639999c23.039957-0.447999 46.271913-1.919996 67.007874-5.759989 22.591958-4.287992 43.199919-10.047981 63.743881-20.479962 20.863961-10.55998 38.911927-25.023953 55.039896-40.767924 15.679971-15.99997 30.143943-34.111936 40.767924-54.911897a232.959563 232.959563 0 0 0 20.479962-63.67988c3.839993-20.735961 5.31199-43.967918 5.759989-66.879875a4073.336362 4073.336362 0 0 0 0.639999-68.223872V321.665317c0-9.407982 0-22.079959-0.192-37.63193zM247.423536 200.065545c40.127925 0 72.767864 29.567945 72.767864 66.239876S287.551461 332.801296 247.423536 332.801296c-40.447924 0-72.959863-29.759944-72.959863-66.431875 0-36.735931 32.447939-66.239876 72.959863-66.239876z m60.671886 398.591253c-19.263964 60.351887-14.271973 38.079929-90.879829 206.655612l-110.527793-70.143868S230.271568 621.120755 255.551521 568.960853c26.87995-54.911897-29.823944-84.287842-29.823944-84.287842l-84.863841-53.4399 46.143913-71.807865c63.80788 48.25591 68.607871 52.287902 111.615791 96.19182 33.407937 34.239936 29.247945 81.279848 9.471982 143.039732z m602.046871 78.655852c-21.56796 205.503615-285.183465 129.023758-285.183465 129.023758l14.335973-58.81589 61.119886 13.247976c112.703789 7.295986 101.887809-92.543826 101.887809-92.543827V377.281213c0.767999-110.527793-102.399808-122.239771-287.871461-54.847898l43.07192 12.095978c-3.519993 12.799976-17.535967 32.959938-35.519934 55.039897h247.999535v50.943904h-139.519738v63.551881h139.071739v50.943904H630.398818v106.6878c20.991961-6.911987 40.319924-16.511969 57.023893-29.247945l-12.159977-46.399913 65.471877-20.799961 54.847897 135.871745-80.767848 34.111936-14.399973-54.079898c-36.159932 28.031947-111.103792 68.607871-242.239546 64.895878-139.775738 3.711993-103.807805-159.9997-103.807805-159.9997l3.455993-1.855996h98.431816c-0.767999 20.927961-9.215983 55.295896 2.367995 73.919861 9.663982 15.359971 34.175936 17.919966 49.791907 18.815965 1.663997 0.128 3.711993 0.128 5.31199 0.128V555.072879H371.391304v-51.007904h142.335733v-63.487881h-36.543932c-31.99994 34.367936-61.311885 62.975882-61.311885 62.975882l-43.071919-38.079929c30.527943-32.639939 61.055886-84.479842 79.99985-118.911777-15.359971 6.207988-31.039942 13.183975-47.359911 20.351962-15.74397 20.479962-34.111936 41.407922-54.463898 62.207883 0.639999 1.087998-70.527868-40.639924-70.527868-40.639923 73.471862-63.487881 114.687785-199.999625 114.687785-199.999625l102.335808 29.119945s-8.319984 20.159962-25.983951 50.943904c409.215233-117.56778 433.279188 72.127865 433.279188 72.127865s26.87995 130.943754 5.375989 336.639369z" fill="#000000" p-id="6191"></path></svg>