<?xml version="1.0" standalone="no"?><!DOCTYPE svg PUBLIC "-//W3C//DTD SVG 1.1//EN" "http://www.w3.org/Graphics/SVG/1.1/DTD/svg11.dtd"><svg t="1586351747171" class="icon" viewBox="0 0 1024 1024" version="1.1" xmlns="http://www.w3.org/2000/svg" p-id="4565" xmlns:xlink="http://www.w3.org/1999/xlink" width="200" height="200"><defs><style type="text/css"></style></defs><path d="M511.872 1022.592C229.632 1022.592 0 793.28 0 511.36S229.632 0.256 511.872 0.256s511.872 229.312 511.872 511.168-229.632 511.168-511.872 511.168z" fill="#000000" p-id="4566"></path><path d="M720.32 450.24l-181.12-182.848a36.544 36.544 0 0 0-39.68-8.128c-0.832 0.32-1.536 1.152-2.304 1.536a35.712 35.712 0 0 0-9.664 6.336l-0.064 0.064-0.128 0.064L305.28 448.64a36.48 36.48 0 1 0 51.648 51.712l118.4-117.824v348.032a36.48 36.48 0 0 0 73.088 0V380.48l119.936 121.088a36.352 36.352 0 0 0 51.712 0.32 36.48 36.48 0 0 0 0.256-51.648z" fill="#FFFFFF" p-id="4567"></path></svg>