<?xml version="1.0" standalone="no"?><!DOCTYPE svg PUBLIC "-//W3C//DTD SVG 1.1//EN" "http://www.w3.org/Graphics/SVG/1.1/DTD/svg11.dtd"><svg t="1586352043101" class="icon" viewBox="0 0 1024 1024" version="1.1" xmlns="http://www.w3.org/2000/svg" p-id="12423" xmlns:xlink="http://www.w3.org/1999/xlink" width="200" height="200"><defs><style type="text/css"></style></defs><path d="M169.6 955.648a23.36 23.36 0 0 1-23.488-23.36c0-12.8 10.496-23.296 23.424-23.296h659.072c12.928 0 23.424 10.432 23.424 23.296a23.36 23.36 0 0 1-23.424 23.36H169.536z m-14.72-599.424l128 58.752a52.224 52.224 0 0 0 67.904-22.848l115.456-216.96a52.224 52.224 0 0 1 92.352 0.32l112.64 216.256c12.8 24.512 42.624 34.752 67.904 23.296l131.264-59.712a52.224 52.224 0 0 1 69.056 25.6c4.736 10.24 5.952 21.824 3.456 32.896l-78.336 347.328a96.64 96.64 0 0 1-94.72 75.2l-517.632-1.664a96.64 96.64 0 0 1-94.208-75.648L82.112 414.4a51.84 51.84 0 0 1 39.744-61.76 52.352 52.352 0 0 1 32.96 3.584zM53.12 368.832a48.256 48.256 0 0 1-48.384-48.128c0-26.56 21.632-48.128 48.384-48.128 26.688 0 48.384 21.568 48.384 48.128a48.256 48.256 0 0 1-48.384 48.128z m459.584-240.64a48.256 48.256 0 0 1-48.32-48.064c0-26.56 21.632-48.128 48.32-48.128 26.752 0 48.384 21.568 48.384 48.128a48.256 48.256 0 0 1-48.384 48.128z m459.648 240.64a48.256 48.256 0 0 1-48.384-48.128c0-26.56 21.696-48.128 48.384-48.128 26.752 0 48.384 21.568 48.384 48.128a48.256 48.256 0 0 1-48.384 48.128z" fill="#000000" p-id="12424"></path></svg>