<?xml version="1.0" standalone="no"?><!DOCTYPE svg PUBLIC "-//W3C//DTD SVG 1.1//EN" "http://www.w3.org/Graphics/SVG/1.1/DTD/svg11.dtd"><svg t="1586351926562" class="icon" viewBox="0 0 1024 1024" version="1.1" xmlns="http://www.w3.org/2000/svg" p-id="9175" xmlns:xlink="http://www.w3.org/1999/xlink" width="200" height="200"><defs><style type="text/css"></style></defs><path d="M698.112 312.128c41.344-42.112 86.144-105.216 86.144-171.84 0-38.592-10.368-70.144-34.496-94.72C704.96 0 625.728 0 536.128 0H470.656C384.512 0 315.52 0 270.72 42.112c-24.128 24.512-34.496 56.064-34.496 98.176 0 70.144 44.8 129.728 82.752 171.84C167.36 392.768 64 554.048 64 718.912 64 1024 367.232 1024 512 1024c144.768 0 448 0 448-305.088 0-168.32-106.88-326.144-261.888-406.784zM615.36 599.68c20.672 0 34.496 14.016 34.496 35.072 0 21.056-13.824 35.072-34.496 35.072H546.432v35.072h68.928c20.672 0 34.496 14.016 34.496 35.072 0 20.992-13.824 35.072-34.496 35.072H546.432v73.6c0 21.056-13.76 35.072-34.432 35.072-20.672 0-34.496-14.016-34.496-35.072v-73.6H408.64c-20.672 0-34.496-14.08-34.496-35.072 0-21.12 13.824-35.072 34.496-35.072H477.44v-35.072H408.64c-20.672 0-34.496-14.08-34.496-35.072 0-21.056 13.824-35.072 34.496-35.072H477.44V578.56l-96.448-94.72a34.304 34.304 0 0 1 0-49.024 32.896 32.896 0 0 1 48.256 0L515.456 519.04 601.6 434.88a32.896 32.896 0 0 1 48.256 0 34.304 34.304 0 0 1 0 49.088L546.432 585.6v14.016h68.928z" fill="#000000" p-id="9176"></path></svg>