<?xml version="1.0" standalone="no"?><!DOCTYPE svg PUBLIC "-//W3C//DTD SVG 1.1//EN" "http://www.w3.org/Graphics/SVG/1.1/DTD/svg11.dtd"><svg t="1586351995917" class="icon" viewBox="0 0 1024 1024" version="1.1" xmlns="http://www.w3.org/2000/svg" p-id="11071" xmlns:xlink="http://www.w3.org/1999/xlink" width="200" height="200"><defs><style type="text/css"></style></defs><path d="M566.399292 48.12794l432.831459 265.791668a52.607934 52.607934 0 0 1 24.767969 44.607944v612.671234a52.991934 52.991934 0 0 1-53.375933 52.799934H53.375933A52.991934 52.991934 0 0 1 0 971.198786V359.167551c0-18.239977 9.535988-35.199956 24.767969-44.607944L451.327436 47.487941a112.639859 112.639859 0 0 1 115.007856 0.639999zM160.767799 577.855278a26.687967 26.687967 0 0 0-26.687967 26.367967v109.951862c0 14.463982 12.031985 26.431967 26.687967 26.431967h134.079832a26.687967 26.687967 0 0 0 26.687967-26.431967V604.223245a26.687967 26.687967 0 0 0-26.687967-26.367967H160.831799z m0 216.767729a26.687967 26.687967 0 0 0-26.687967 26.431967v136.319829h187.519766v-136.319829a26.687967 26.687967 0 0 0-26.751967-26.431967H160.831799z m280.959649-216.767729a26.687967 26.687967 0 0 0-26.751967 26.367967v109.951862c0 14.463982 12.159985 26.431967 26.751967 26.431967h134.079832a26.687967 26.687967 0 0 0 26.687967-26.431967V604.223245a26.687967 26.687967 0 0 0-26.687967-26.367967H441.791448z m0-217.471728a26.687967 26.687967 0 0 0-26.751967 26.431966v109.951863c0 14.463982 12.159985 26.367967 26.751967 26.367967h134.079832a26.687967 26.687967 0 0 0 26.687967-26.367967V386.815516a26.687967 26.687967 0 0 0-26.687967-26.431966H441.791448z m0 434.239457a26.687967 26.687967 0 0 0-26.751967 26.431967v136.319829h187.519766v-136.319829a26.687967 26.687967 0 0 0-26.687967-26.431967H441.791448z m281.599648 0a26.687967 26.687967 0 0 0-26.751967 26.431967v136.319829h187.519766v-136.319829a26.687967 26.687967 0 0 0-26.687967-26.431967h-134.143832z" fill="#000000" p-id="11072"></path></svg>