<?xml version="1.0" standalone="no"?><!DOCTYPE svg PUBLIC "-//W3C//DTD SVG 1.1//EN" "http://www.w3.org/Graphics/SVG/1.1/DTD/svg11.dtd"><svg t="1586351944100" class="icon" viewBox="0 0 1024 1024" version="1.1" xmlns="http://www.w3.org/2000/svg" p-id="9715" xmlns:xlink="http://www.w3.org/1999/xlink" width="200" height="200"><defs><style type="text/css"></style></defs><path d="M511.51744 725.056c22.912 0 41.472 18.368 41.472 40.96 0 22.592-18.56 40.96-41.472 40.96a41.216 41.216 0 0 1-41.472-40.96c0-22.592 18.56-40.96 41.472-40.96z m-41.472-327.68c0-22.592 18.56-40.96 41.472-40.96 22.912 0 41.472 18.368 41.472 40.96v204.8c0 22.592-18.56 40.96-41.472 40.96a41.216 41.216 0 0 1-41.472-40.96v-204.8z m542.528 465.408L568.34944 99.84C555.29344 77.44 534.42944 64.576 511.51744 64.576c-23.04 0-43.712 12.864-56.832 35.456L10.52544 862.72c-13.056 22.528-14.016 46.72-2.432 66.368 11.52 19.648 33.088 30.912 59.264 30.912h888.32c26.24 0 47.872-11.2 59.392-30.912 11.52-19.648 10.624-43.84-2.56-66.304z" fill="#000000" p-id="9716"></path></svg>