<?xml version="1.0" standalone="no"?><!DOCTYPE svg PUBLIC "-//W3C//DTD SVG 1.1//EN" "http://www.w3.org/Graphics/SVG/1.1/DTD/svg11.dtd"><svg t="1586351822200" class="icon" viewBox="0 0 1024 1024" version="1.1" xmlns="http://www.w3.org/2000/svg" p-id="6461" xmlns:xlink="http://www.w3.org/1999/xlink" width="200" height="200"><defs><style type="text/css"></style></defs><path d="M235.968 324.352a43.072 43.072 0 1 0 86.144 0 43.072 43.072 0 0 0-86.144 0zM571.392 547.072a33.728 33.728 0 1 0 67.456 0 33.728 33.728 0 0 0-67.456 0z" fill="#000000" p-id="6462"></path><path d="M455.68 324.352a43.072 43.072 0 1 0 86.144 0 43.072 43.072 0 0 0-86.144 0z" fill="#000000" p-id="6463"></path><path d="M856.96 1.152H165.76A165.952 165.952 0 0 0 0 167.36v690.368A165.952 165.952 0 0 0 165.76 1024h691.2c91.52 0 165.696-74.432 165.696-166.272V167.36a165.952 165.952 0 0 0-165.76-166.208zM383.68 686.4c-38.656 0-69.76-7.872-108.608-15.552l-108.352 54.4 30.976-93.312c-77.568-54.272-124.032-124.16-124.032-209.28 0-147.584 139.584-263.68 310.016-263.68 152.448 0 286.016 92.8 312.832 217.728a268.032 268.032 0 0 0-29.824-1.856c-147.328 0-263.616 109.952-263.616 245.376 0 22.528 3.52 44.224 9.6 64.96-9.6 0.768-19.2 1.28-28.992 1.28z m457.344 108.608l23.296 77.44-84.992-46.528c-31.04 7.744-62.208 15.552-93.056 15.552-147.52 0-263.68-100.8-263.68-224.96 0-123.968 116.16-225.024 263.68-225.024 139.328 0 263.36 101.056 263.36 225.024 0 69.888-46.4 131.84-108.608 178.56z" fill="#000000" p-id="6464"></path><path d="M740.352 547.072a33.728 33.728 0 1 0 67.456 0 33.728 33.728 0 0 0-67.456 0z" fill="#000000" p-id="6465"></path></svg>