<?xml version="1.0" standalone="no"?><!DOCTYPE svg PUBLIC "-//W3C//DTD SVG 1.1//EN" "http://www.w3.org/Graphics/SVG/1.1/DTD/svg11.dtd"><svg t="1586352159757" class="icon" viewBox="0 0 1024 1024" version="1.1" xmlns="http://www.w3.org/2000/svg" p-id="14597" xmlns:xlink="http://www.w3.org/1999/xlink" width="200" height="200"><defs><style type="text/css"></style></defs><path d="M636.224 797.888c0 69.504-55.552 125.952-124.224 125.952s-124.224-56.448-124.224-125.952c0-69.504 55.552-125.952 124.224-125.952s124.224 56.448 124.224 125.952zM512 502.848c77.632 0 151.104 31.104 205.696 86.464a41.6 41.6 0 0 1 0 58.368 40.704 40.704 0 0 1-58.112 0 206.272 206.272 0 0 0-295.168 0 40.704 40.704 0 0 1-58.112 0 41.6 41.6 0 0 1 0-58.368A287.872 287.872 0 0 1 512 502.848z m0-211.456c133.12 0 259.2 53.376 352.896 148.48a41.664 41.664 0 0 1 0 58.304 40.704 40.704 0 0 1-58.112 0 412.16 412.16 0 0 0-589.568 0 40.704 40.704 0 0 1-58.112 0 41.664 41.664 0 0 1 0-58.304A493.696 493.696 0 0 1 512 291.392zM512 80c188.736 0 367.36 75.52 500.096 210.368a41.6 41.6 0 0 1 0 58.304 40.704 40.704 0 0 1-58.112 0 617.984 617.984 0 0 0-883.968 0 40.704 40.704 0 0 1-58.112 0 41.6 41.6 0 0 1 0-58.304A699.52 699.52 0 0 1 512 80z" fill="#000000" p-id="14598"></path></svg>